<svg width="500" height="353" viewBox="0 0 500 353" fill="none" xmlns="http://www.w3.org/2000/svg">
<rect width="500" height="165" rx="8" fill="white"/>
<path d="M140.992 107H139.102V97.8672L136.312 98.8203V97.2188L140.75 95.5859H140.992V107ZM151.367 102.945H152.781V104.469H151.367V107H149.469V104.469H144.555L144.5 103.312L149.406 95.625H151.367V102.945ZM146.492 102.945H149.469V98.1953L149.328 98.4453L146.492 102.945ZM153.961 97.8125C153.961 97.125 154.182 96.5625 154.625 96.125C155.068 95.6823 155.648 95.4609 156.367 95.4609C157.096 95.4609 157.68 95.6823 158.117 96.125C158.56 96.5625 158.781 97.138 158.781 97.8516V98.4141C158.781 99.0964 158.56 99.6562 158.117 100.094C157.68 100.531 157.102 100.75 156.383 100.75C155.68 100.75 155.099 100.536 154.641 100.109C154.188 99.6771 153.961 99.0964 153.961 98.3672V97.8125ZM155.289 98.4141C155.289 98.7734 155.388 99.0651 155.586 99.2891C155.789 99.5078 156.055 99.6172 156.383 99.6172C156.706 99.6172 156.966 99.5078 157.164 99.2891C157.362 99.0651 157.461 98.763 157.461 98.3828V97.8125C157.461 97.4531 157.359 97.1615 157.156 96.9375C156.958 96.7135 156.695 96.6016 156.367 96.6016C156.039 96.6016 155.776 96.7161 155.578 96.9453C155.385 97.1693 155.289 97.4661 155.289 97.8359V98.4141ZM159.43 104.211C159.43 103.513 159.656 102.948 160.109 102.516C160.562 102.083 161.141 101.867 161.844 101.867C162.552 101.867 163.13 102.083 163.578 102.516C164.031 102.948 164.258 103.531 164.258 104.266V104.82C164.258 105.497 164.039 106.057 163.602 106.5C163.169 106.938 162.589 107.156 161.859 107.156C161.13 107.156 160.542 106.94 160.094 106.508C159.651 106.07 159.43 105.495 159.43 104.781V104.211ZM160.758 104.82C160.758 105.174 160.859 105.466 161.062 105.695C161.271 105.919 161.536 106.031 161.859 106.031C162.193 106.031 162.453 105.924 162.641 105.711C162.833 105.492 162.93 105.188 162.93 104.797V104.211C162.93 103.846 162.828 103.555 162.625 103.336C162.422 103.117 162.161 103.008 161.844 103.008C161.521 103.008 161.258 103.117 161.055 103.336C160.857 103.555 160.758 103.857 160.758 104.242V104.82ZM156.773 106.148L155.797 105.586L161.352 96.6953L162.328 97.2578L156.773 106.148ZM171.68 98.5469L171.734 99.4297C172.328 98.737 173.141 98.3906 174.172 98.3906C175.302 98.3906 176.076 98.8229 176.492 99.6875C177.107 98.8229 177.971 98.3906 179.086 98.3906C180.018 98.3906 180.711 98.6484 181.164 99.1641C181.622 99.6797 181.857 100.44 181.867 101.445V107H179.969V101.5C179.969 100.964 179.852 100.57 179.617 100.32C179.383 100.07 178.995 99.9453 178.453 99.9453C178.021 99.9453 177.667 100.062 177.391 100.297C177.12 100.526 176.93 100.828 176.82 101.203L176.828 107H174.93V101.438C174.904 100.443 174.396 99.9453 173.406 99.9453C172.646 99.9453 172.107 100.255 171.789 100.875V107H169.891V98.5469H171.68ZM183.461 102.695C183.461 101.867 183.625 101.122 183.953 100.461C184.281 99.7943 184.742 99.2839 185.336 98.9297C185.93 98.5703 186.612 98.3906 187.383 98.3906C188.523 98.3906 189.448 98.7578 190.156 99.4922C190.87 100.227 191.255 101.201 191.312 102.414L191.32 102.859C191.32 103.693 191.159 104.438 190.836 105.094C190.518 105.75 190.06 106.258 189.461 106.617C188.867 106.977 188.18 107.156 187.398 107.156C186.206 107.156 185.25 106.76 184.531 105.969C183.818 105.172 183.461 104.112 183.461 102.789V102.695ZM185.359 102.859C185.359 103.729 185.539 104.411 185.898 104.906C186.258 105.396 186.758 105.641 187.398 105.641C188.039 105.641 188.536 105.391 188.891 104.891C189.25 104.391 189.43 103.659 189.43 102.695C189.43 101.841 189.245 101.164 188.875 100.664C188.51 100.164 188.013 99.9141 187.383 99.9141C186.763 99.9141 186.271 100.161 185.906 100.656C185.542 101.146 185.359 101.88 185.359 102.859ZM197.352 100.281C197.102 100.24 196.844 100.219 196.578 100.219C195.708 100.219 195.122 100.552 194.82 101.219V107H192.922V98.5469H194.734L194.781 99.4922C195.24 98.7578 195.875 98.3906 196.688 98.3906C196.958 98.3906 197.182 98.4271 197.359 98.5L197.352 100.281ZM202.117 107.156C200.914 107.156 199.938 106.779 199.188 106.023C198.443 105.263 198.07 104.253 198.07 102.992V102.758C198.07 101.914 198.232 101.161 198.555 100.5C198.883 99.8333 199.341 99.3151 199.93 98.9453C200.518 98.5755 201.174 98.3906 201.898 98.3906C203.049 98.3906 203.938 98.7578 204.562 99.4922C205.193 100.227 205.508 101.266 205.508 102.609V103.375H199.984C200.042 104.073 200.273 104.625 200.68 105.031C201.091 105.438 201.607 105.641 202.227 105.641C203.096 105.641 203.805 105.289 204.352 104.586L205.375 105.562C205.036 106.068 204.583 106.461 204.016 106.742C203.453 107.018 202.82 107.156 202.117 107.156ZM201.891 99.9141C201.37 99.9141 200.948 100.096 200.625 100.461C200.307 100.826 200.104 101.333 200.016 101.984H203.633V101.844C203.591 101.208 203.422 100.729 203.125 100.406C202.828 100.078 202.417 99.9141 201.891 99.9141ZM213.352 96.4922V98.5469H214.844V99.9531H213.352V104.672C213.352 104.995 213.414 105.229 213.539 105.375C213.669 105.516 213.898 105.586 214.227 105.586C214.445 105.586 214.667 105.56 214.891 105.508V106.977C214.458 107.096 214.042 107.156 213.641 107.156C212.182 107.156 211.453 106.352 211.453 104.742V99.9531H210.062V98.5469H211.453V96.4922H213.352ZM218.172 99.4688C218.792 98.75 219.576 98.3906 220.523 98.3906C222.326 98.3906 223.24 99.4193 223.266 101.477V107H221.367V101.547C221.367 100.964 221.24 100.552 220.984 100.312C220.734 100.068 220.365 99.9453 219.875 99.9453C219.115 99.9453 218.547 100.284 218.172 100.961V107H216.273V95H218.172V99.4688ZM230.242 107C230.159 106.839 230.086 106.576 230.023 106.211C229.419 106.841 228.68 107.156 227.805 107.156C226.956 107.156 226.263 106.914 225.727 106.43C225.19 105.945 224.922 105.346 224.922 104.633C224.922 103.732 225.255 103.042 225.922 102.562C226.594 102.078 227.552 101.836 228.797 101.836H229.961V101.281C229.961 100.844 229.839 100.495 229.594 100.234C229.349 99.9688 228.977 99.8359 228.477 99.8359C228.044 99.8359 227.69 99.9453 227.414 100.164C227.138 100.378 227 100.651 227 100.984H225.102C225.102 100.521 225.255 100.089 225.562 99.6875C225.87 99.2812 226.286 98.9635 226.812 98.7344C227.344 98.5052 227.935 98.3906 228.586 98.3906C229.576 98.3906 230.365 98.6406 230.953 99.1406C231.542 99.6354 231.844 100.333 231.859 101.234V105.047C231.859 105.807 231.966 106.414 232.18 106.867V107H230.242ZM228.156 105.633C228.531 105.633 228.883 105.542 229.211 105.359C229.544 105.177 229.794 104.932 229.961 104.625V103.031H228.938C228.234 103.031 227.706 103.154 227.352 103.398C226.997 103.643 226.82 103.99 226.82 104.438C226.82 104.802 226.94 105.094 227.18 105.312C227.424 105.526 227.75 105.633 228.156 105.633ZM235.609 98.5469L235.664 99.5234C236.289 98.7682 237.109 98.3906 238.125 98.3906C239.885 98.3906 240.781 99.3984 240.812 101.414V107H238.914V101.523C238.914 100.987 238.797 100.591 238.562 100.336C238.333 100.076 237.956 99.9453 237.43 99.9453C236.664 99.9453 236.094 100.292 235.719 100.984V107H233.82V98.5469H235.609ZM248.758 107H246.859V95H248.758V107ZM255.883 107C255.799 106.839 255.727 106.576 255.664 106.211C255.06 106.841 254.32 107.156 253.445 107.156C252.596 107.156 251.904 106.914 251.367 106.43C250.831 105.945 250.562 105.346 250.562 104.633C250.562 103.732 250.896 103.042 251.562 102.562C252.234 102.078 253.193 101.836 254.438 101.836H255.602V101.281C255.602 100.844 255.479 100.495 255.234 100.234C254.99 99.9688 254.617 99.8359 254.117 99.8359C253.685 99.8359 253.331 99.9453 253.055 100.164C252.779 100.378 252.641 100.651 252.641 100.984H250.742C250.742 100.521 250.896 100.089 251.203 99.6875C251.51 99.2812 251.927 98.9635 252.453 98.7344C252.984 98.5052 253.576 98.3906 254.227 98.3906C255.216 98.3906 256.005 98.6406 256.594 99.1406C257.182 99.6354 257.484 100.333 257.5 101.234V105.047C257.5 105.807 257.607 106.414 257.82 106.867V107H255.883ZM253.797 105.633C254.172 105.633 254.523 105.542 254.852 105.359C255.185 105.177 255.435 104.932 255.602 104.625V103.031H254.578C253.875 103.031 253.346 103.154 252.992 103.398C252.638 103.643 252.461 103.99 252.461 104.438C252.461 104.802 252.581 105.094 252.82 105.312C253.065 105.526 253.391 105.633 253.797 105.633ZM264.227 104.703C264.227 104.365 264.086 104.107 263.805 103.93C263.529 103.753 263.068 103.596 262.422 103.461C261.776 103.326 261.237 103.154 260.805 102.945C259.857 102.487 259.383 101.823 259.383 100.953C259.383 100.224 259.69 99.6146 260.305 99.125C260.919 98.6354 261.701 98.3906 262.648 98.3906C263.659 98.3906 264.474 98.6406 265.094 99.1406C265.719 99.6406 266.031 100.289 266.031 101.086H264.133C264.133 100.721 263.997 100.419 263.727 100.18C263.456 99.9349 263.096 99.8125 262.648 99.8125C262.232 99.8125 261.891 99.9089 261.625 100.102C261.365 100.294 261.234 100.552 261.234 100.875C261.234 101.167 261.357 101.393 261.602 101.555C261.846 101.716 262.341 101.88 263.086 102.047C263.831 102.208 264.414 102.404 264.836 102.633C265.263 102.857 265.578 103.128 265.781 103.445C265.99 103.763 266.094 104.148 266.094 104.602C266.094 105.362 265.779 105.979 265.148 106.453C264.518 106.922 263.693 107.156 262.672 107.156C261.979 107.156 261.362 107.031 260.82 106.781C260.279 106.531 259.857 106.188 259.555 105.75C259.253 105.312 259.102 104.841 259.102 104.336H260.945C260.971 104.784 261.141 105.13 261.453 105.375C261.766 105.615 262.18 105.734 262.695 105.734C263.195 105.734 263.576 105.641 263.836 105.453C264.096 105.26 264.227 105.01 264.227 104.703ZM270.133 96.4922V98.5469H271.625V99.9531H270.133V104.672C270.133 104.995 270.195 105.229 270.32 105.375C270.451 105.516 270.68 105.586 271.008 105.586C271.227 105.586 271.448 105.56 271.672 105.508V106.977C271.24 107.096 270.823 107.156 270.422 107.156C268.964 107.156 268.234 106.352 268.234 104.742V99.9531H266.844V98.5469H268.234V96.4922H270.133ZM280.023 104.281L281.742 98.5469H283.766L280.406 108.281C279.891 109.703 279.016 110.414 277.781 110.414C277.505 110.414 277.201 110.367 276.867 110.273V108.805L277.227 108.828C277.706 108.828 278.065 108.74 278.305 108.562C278.549 108.391 278.742 108.099 278.883 107.688L279.156 106.961L276.188 98.5469H278.234L280.023 104.281ZM288.477 107.156C287.273 107.156 286.297 106.779 285.547 106.023C284.802 105.263 284.43 104.253 284.43 102.992V102.758C284.43 101.914 284.591 101.161 284.914 100.5C285.242 99.8333 285.701 99.3151 286.289 98.9453C286.878 98.5755 287.534 98.3906 288.258 98.3906C289.409 98.3906 290.297 98.7578 290.922 99.4922C291.552 100.227 291.867 101.266 291.867 102.609V103.375H286.344C286.401 104.073 286.633 104.625 287.039 105.031C287.451 105.438 287.966 105.641 288.586 105.641C289.456 105.641 290.164 105.289 290.711 104.586L291.734 105.562C291.396 106.068 290.943 106.461 290.375 106.742C289.812 107.018 289.18 107.156 288.477 107.156ZM288.25 99.9141C287.729 99.9141 287.307 100.096 286.984 100.461C286.667 100.826 286.464 101.333 286.375 101.984H289.992V101.844C289.951 101.208 289.781 100.729 289.484 100.406C289.188 100.078 288.776 99.9141 288.25 99.9141ZM298.398 107C298.315 106.839 298.242 106.576 298.18 106.211C297.576 106.841 296.836 107.156 295.961 107.156C295.112 107.156 294.419 106.914 293.883 106.43C293.346 105.945 293.078 105.346 293.078 104.633C293.078 103.732 293.411 103.042 294.078 102.562C294.75 102.078 295.708 101.836 296.953 101.836H298.117V101.281C298.117 100.844 297.995 100.495 297.75 100.234C297.505 99.9688 297.133 99.8359 296.633 99.8359C296.201 99.8359 295.846 99.9453 295.57 100.164C295.294 100.378 295.156 100.651 295.156 100.984H293.258C293.258 100.521 293.411 100.089 293.719 99.6875C294.026 99.2812 294.443 98.9635 294.969 98.7344C295.5 98.5052 296.091 98.3906 296.742 98.3906C297.732 98.3906 298.521 98.6406 299.109 99.1406C299.698 99.6354 300 100.333 300.016 101.234V105.047C300.016 105.807 300.122 106.414 300.336 106.867V107H298.398ZM296.312 105.633C296.688 105.633 297.039 105.542 297.367 105.359C297.701 105.177 297.951 104.932 298.117 104.625V103.031H297.094C296.391 103.031 295.862 103.154 295.508 103.398C295.154 103.643 294.977 103.99 294.977 104.438C294.977 104.802 295.096 105.094 295.336 105.312C295.581 105.526 295.906 105.633 296.312 105.633ZM306.43 100.281C306.18 100.24 305.922 100.219 305.656 100.219C304.786 100.219 304.201 100.552 303.898 101.219V107H302V98.5469H303.812L303.859 99.4922C304.318 98.7578 304.953 98.3906 305.766 98.3906C306.036 98.3906 306.26 98.4271 306.438 98.5L306.43 100.281Z" fill="#A6ACBE"/>
<path d="M142.568 76.3164C141.833 77.0391 140.973 77.4004 139.99 77.4004C138.734 77.4004 137.728 76.9707 136.973 76.1113C136.217 75.2454 135.84 74.0801 135.84 72.6152C135.84 71.6842 136.042 70.8314 136.445 70.0566C136.855 69.2754 137.425 68.6699 138.154 68.2402C138.883 67.804 139.704 67.5859 140.615 67.5859C141.553 67.5859 142.386 67.8203 143.115 68.2891C143.844 68.7578 144.411 69.4316 144.814 70.3105C145.218 71.1895 145.423 72.1953 145.43 73.3281V74.373C145.43 76.7428 144.84 78.6048 143.662 79.959C142.484 81.3132 140.814 82.0358 138.652 82.127L137.959 82.1367V79.7832L138.584 79.7734C141.038 79.6628 142.367 78.5104 142.568 76.3164ZM140.684 75.2422C141.139 75.2422 141.53 75.125 141.855 74.8906C142.188 74.6562 142.438 74.373 142.607 74.041V72.8789C142.607 71.9219 142.425 71.1797 142.061 70.6523C141.696 70.125 141.208 69.8613 140.596 69.8613C140.029 69.8613 139.564 70.1217 139.199 70.6426C138.835 71.1569 138.652 71.8047 138.652 72.5859C138.652 73.3607 138.828 73.9987 139.18 74.5C139.538 74.9948 140.039 75.2422 140.684 75.2422ZM157.021 76.1211C157.021 78.0872 156.615 79.5911 155.801 80.6328C154.987 81.6745 153.796 82.1953 152.227 82.1953C150.677 82.1953 149.492 81.6842 148.672 80.6621C147.852 79.64 147.432 78.1751 147.412 76.2676V73.6504C147.412 71.6647 147.822 70.1576 148.643 69.1289C149.469 68.1003 150.658 67.5859 152.207 67.5859C153.757 67.5859 154.941 68.097 155.762 69.1191C156.582 70.1348 157.002 71.5964 157.021 73.5039V76.1211ZM154.199 73.25C154.199 72.0716 154.036 71.2155 153.711 70.6816C153.392 70.1413 152.891 69.8711 152.207 69.8711C151.543 69.8711 151.051 70.1283 150.732 70.6426C150.42 71.1504 150.254 71.9479 150.234 73.0352V76.4922C150.234 77.651 150.391 78.5137 150.703 79.0801C151.022 79.64 151.53 79.9199 152.227 79.9199C152.917 79.9199 153.415 79.6497 153.721 79.1094C154.027 78.569 154.186 77.7422 154.199 76.6289V73.25ZM170.361 80.9258C169.665 81.7721 168.701 82.1953 167.471 82.1953C166.338 82.1953 165.472 81.8698 164.873 81.2188C164.281 80.5677 163.978 79.6139 163.965 78.3574V71.4336H166.787V78.2598C166.787 79.36 167.288 79.9102 168.291 79.9102C169.248 79.9102 169.906 79.5781 170.264 78.9141V71.4336H173.096V82H170.439L170.361 80.9258ZM177.822 71.4336L177.91 72.6543C178.665 71.7103 179.678 71.2383 180.947 71.2383C182.067 71.2383 182.9 71.5671 183.447 72.2246C183.994 72.8822 184.274 73.8652 184.287 75.1738V82H181.465V75.2422C181.465 74.6432 181.335 74.2103 181.074 73.9434C180.814 73.6699 180.381 73.5332 179.775 73.5332C178.981 73.5332 178.385 73.8717 177.988 74.5488V82H175.166V71.4336H177.822ZM185.996 76.6387C185.996 74.9915 186.364 73.6797 187.1 72.7031C187.842 71.7266 188.854 71.2383 190.137 71.2383C191.165 71.2383 192.015 71.6224 192.686 72.3906V67H195.518V82H192.969L192.832 80.877C192.129 81.7559 191.224 82.1953 190.117 82.1953C188.874 82.1953 187.874 81.707 187.119 80.7305C186.37 79.7474 185.996 78.3835 185.996 76.6387ZM188.818 76.8438C188.818 77.8333 188.991 78.5918 189.336 79.1191C189.681 79.6465 190.182 79.9102 190.84 79.9102C191.712 79.9102 192.327 79.5423 192.686 78.8066V74.6367C192.334 73.901 191.725 73.5332 190.859 73.5332C189.499 73.5332 188.818 74.6367 188.818 76.8438ZM202.568 82.1953C201.019 82.1953 199.756 81.7201 198.779 80.7695C197.809 79.819 197.324 78.5527 197.324 76.9707V76.6973C197.324 75.6361 197.529 74.6888 197.939 73.8555C198.35 73.0156 198.929 72.3711 199.678 71.9219C200.433 71.4661 201.292 71.2383 202.256 71.2383C203.701 71.2383 204.837 71.694 205.664 72.6055C206.497 73.5169 206.914 74.8092 206.914 76.4824V77.6348H200.186C200.277 78.3249 200.55 78.8783 201.006 79.2949C201.468 79.7116 202.051 79.9199 202.754 79.9199C203.841 79.9199 204.691 79.526 205.303 78.7383L206.689 80.291C206.266 80.89 205.693 81.3587 204.971 81.6973C204.248 82.0293 203.447 82.1953 202.568 82.1953ZM202.246 73.5234C201.686 73.5234 201.23 73.7122 200.879 74.0898C200.534 74.4674 200.312 75.0078 200.215 75.7109H204.141V75.4863C204.128 74.8613 203.958 74.3796 203.633 74.041C203.307 73.696 202.845 73.5234 202.246 73.5234ZM214.463 74.0801C214.079 74.028 213.74 74.002 213.447 74.002C212.38 74.002 211.68 74.3633 211.348 75.0859V82H208.525V71.4336H211.191L211.27 72.6934C211.836 71.7233 212.62 71.2383 213.623 71.2383C213.936 71.2383 214.229 71.2806 214.502 71.3652L214.463 74.0801ZM225.342 76.8145C225.342 78.4421 224.971 79.7474 224.229 80.7305C223.493 81.707 222.497 82.1953 221.24 82.1953C220.173 82.1953 219.31 81.8242 218.652 81.082V86.0625H215.83V71.4336H218.447L218.545 72.4688C219.229 71.6484 220.12 71.2383 221.221 71.2383C222.523 71.2383 223.535 71.7201 224.258 72.6836C224.98 73.6471 225.342 74.9753 225.342 76.668V76.8145ZM222.52 76.6094C222.52 75.6263 222.344 74.8678 221.992 74.334C221.647 73.8001 221.143 73.5332 220.479 73.5332C219.593 73.5332 218.984 73.8717 218.652 74.5488V78.875C218.997 79.5716 219.613 79.9199 220.498 79.9199C221.846 79.9199 222.52 78.8164 222.52 76.6094ZM231.963 82.1953C230.413 82.1953 229.15 81.7201 228.174 80.7695C227.204 79.819 226.719 78.5527 226.719 76.9707V76.6973C226.719 75.6361 226.924 74.6888 227.334 73.8555C227.744 73.0156 228.324 72.3711 229.072 71.9219C229.827 71.4661 230.687 71.2383 231.65 71.2383C233.096 71.2383 234.232 71.694 235.059 72.6055C235.892 73.5169 236.309 74.8092 236.309 76.4824V77.6348H229.58C229.671 78.3249 229.945 78.8783 230.4 79.2949C230.863 79.7116 231.445 79.9199 232.148 79.9199C233.236 79.9199 234.085 79.526 234.697 78.7383L236.084 80.291C235.661 80.89 235.088 81.3587 234.365 81.6973C233.643 82.0293 232.842 82.1953 231.963 82.1953ZM231.641 73.5234C231.081 73.5234 230.625 73.7122 230.273 74.0898C229.928 74.4674 229.707 75.0078 229.609 75.7109H233.535V75.4863C233.522 74.8613 233.353 74.3796 233.027 74.041C232.702 73.696 232.24 73.5234 231.641 73.5234ZM243.857 74.0801C243.473 74.028 243.135 74.002 242.842 74.002C241.774 74.002 241.074 74.3633 240.742 75.0859V82H237.92V71.4336H240.586L240.664 72.6934C241.23 71.7233 242.015 71.2383 243.018 71.2383C243.33 71.2383 243.623 71.2806 243.896 71.3652L243.857 74.0801ZM246.191 82V73.5039H244.619V71.4336H246.191V70.5352C246.191 69.3503 246.53 68.4323 247.207 67.7812C247.891 67.1237 248.844 66.7949 250.068 66.7949C250.459 66.7949 250.938 66.86 251.504 66.9902L251.475 69.1777C251.24 69.1191 250.954 69.0898 250.615 69.0898C249.554 69.0898 249.023 69.5879 249.023 70.584V71.4336H251.123V73.5039H249.023V82H246.191ZM252.148 76.6191C252.148 75.571 252.35 74.6367 252.754 73.8164C253.158 72.9961 253.737 72.3613 254.492 71.9121C255.254 71.4629 256.136 71.2383 257.139 71.2383C258.564 71.2383 259.727 71.6745 260.625 72.5469C261.53 73.4193 262.035 74.6042 262.139 76.1016L262.158 76.8242C262.158 78.4453 261.706 79.7474 260.801 80.7305C259.896 81.707 258.682 82.1953 257.158 82.1953C255.635 82.1953 254.417 81.707 253.506 80.7305C252.601 79.7539 252.148 78.4258 252.148 76.7461V76.6191ZM254.971 76.8242C254.971 77.8268 255.16 78.5951 255.537 79.1289C255.915 79.6562 256.455 79.9199 257.158 79.9199C257.842 79.9199 258.376 79.6595 258.76 79.1387C259.144 78.6113 259.336 77.7715 259.336 76.6191C259.336 75.6361 259.144 74.8743 258.76 74.334C258.376 73.7936 257.835 73.5234 257.139 73.5234C256.449 73.5234 255.915 73.7936 255.537 74.334C255.16 74.8678 254.971 75.6979 254.971 76.8242ZM269.834 74.0801C269.45 74.028 269.111 74.002 268.818 74.002C267.751 74.002 267.051 74.3633 266.719 75.0859V82H263.896V71.4336H266.562L266.641 72.6934C267.207 71.7233 267.992 71.2383 268.994 71.2383C269.307 71.2383 269.6 71.2806 269.873 71.3652L269.834 74.0801ZM273.848 71.4336L273.936 72.6152C274.684 71.6973 275.697 71.2383 276.973 71.2383C278.333 71.2383 279.268 71.7754 279.775 72.8496C280.518 71.7754 281.576 71.2383 282.949 71.2383C284.095 71.2383 284.948 71.5736 285.508 72.2441C286.068 72.9082 286.348 73.9108 286.348 75.252V82H283.516V75.2617C283.516 74.6628 283.398 74.2266 283.164 73.9531C282.93 73.6732 282.516 73.5332 281.924 73.5332C281.077 73.5332 280.492 73.9368 280.166 74.7441L280.176 82H277.354V75.2715C277.354 74.6595 277.233 74.2168 276.992 73.9434C276.751 73.6699 276.341 73.5332 275.762 73.5332C274.961 73.5332 274.382 73.8652 274.023 74.5293V82H271.201V71.4336H273.848ZM291.504 82H288.672V71.4336H291.504V82ZM288.506 68.6992C288.506 68.276 288.646 67.9277 288.926 67.6543C289.212 67.3809 289.6 67.2441 290.088 67.2441C290.57 67.2441 290.954 67.3809 291.24 67.6543C291.527 67.9277 291.67 68.276 291.67 68.6992C291.67 69.1289 291.523 69.4805 291.23 69.7539C290.944 70.0273 290.563 70.1641 290.088 70.1641C289.613 70.1641 289.229 70.0273 288.936 69.7539C288.649 69.4805 288.506 69.1289 288.506 68.6992ZM296.436 71.4336L296.523 72.6543C297.279 71.7103 298.291 71.2383 299.561 71.2383C300.68 71.2383 301.514 71.5671 302.061 72.2246C302.607 72.8822 302.887 73.8652 302.9 75.1738V82H300.078V75.2422C300.078 74.6432 299.948 74.2103 299.688 73.9434C299.427 73.6699 298.994 73.5332 298.389 73.5332C297.594 73.5332 296.999 73.8717 296.602 74.5488V82H293.779V71.4336H296.436ZM304.639 76.6387C304.639 75.0176 305.023 73.7122 305.791 72.7227C306.566 71.7331 307.607 71.2383 308.916 71.2383C310.075 71.2383 310.977 71.6354 311.621 72.4297L311.738 71.4336H314.297V81.6484C314.297 82.5729 314.085 83.377 313.662 84.0605C313.245 84.7441 312.656 85.265 311.895 85.623C311.133 85.9811 310.241 86.1602 309.219 86.1602C308.444 86.1602 307.689 86.0039 306.953 85.6914C306.217 85.3854 305.661 84.9883 305.283 84.5L306.533 82.7812C307.236 83.569 308.089 83.9629 309.092 83.9629C309.84 83.9629 310.423 83.7611 310.84 83.3574C311.257 82.9603 311.465 82.3939 311.465 81.6582V81.0918C310.814 81.8275 309.958 82.1953 308.896 82.1953C307.627 82.1953 306.598 81.7005 305.811 80.7109C305.029 79.7148 304.639 78.3965 304.639 76.7559V76.6387ZM307.461 76.8438C307.461 77.8008 307.653 78.5527 308.037 79.0996C308.421 79.64 308.949 79.9102 309.619 79.9102C310.479 79.9102 311.094 79.5879 311.465 78.9434V74.5C311.087 73.8555 310.479 73.5332 309.639 73.5332C308.962 73.5332 308.428 73.8099 308.037 74.3633C307.653 74.9167 307.461 75.7435 307.461 76.8438ZM327.783 80.9258C327.087 81.7721 326.123 82.1953 324.893 82.1953C323.76 82.1953 322.894 81.8698 322.295 81.2188C321.702 80.5677 321.4 79.6139 321.387 78.3574V71.4336H324.209V78.2598C324.209 79.36 324.71 79.9102 325.713 79.9102C326.67 79.9102 327.327 79.5781 327.686 78.9141V71.4336H330.518V82H327.861L327.783 80.9258ZM338.369 79.0801C338.369 78.735 338.197 78.4648 337.852 78.2695C337.513 78.0677 336.966 77.8887 336.211 77.7324C333.698 77.2051 332.441 76.1374 332.441 74.5293C332.441 73.5918 332.829 72.8105 333.604 72.1855C334.385 71.554 335.404 71.2383 336.66 71.2383C338.001 71.2383 339.072 71.554 339.873 72.1855C340.68 72.8171 341.084 73.6374 341.084 74.6465H338.262C338.262 74.2428 338.132 73.9108 337.871 73.6504C337.611 73.3835 337.204 73.25 336.65 73.25C336.175 73.25 335.807 73.3574 335.547 73.5723C335.286 73.7871 335.156 74.0605 335.156 74.3926C335.156 74.7051 335.303 74.959 335.596 75.1543C335.895 75.3431 336.396 75.5091 337.1 75.6523C337.803 75.7891 338.395 75.9453 338.877 76.1211C340.368 76.668 341.113 77.6152 341.113 78.9629C341.113 79.9264 340.7 80.7077 339.873 81.3066C339.046 81.8991 337.979 82.1953 336.67 82.1953C335.785 82.1953 334.997 82.0391 334.307 81.7266C333.623 81.4076 333.086 80.9746 332.695 80.4277C332.305 79.8743 332.109 79.2786 332.109 78.6406H334.785C334.811 79.1419 334.997 79.526 335.342 79.793C335.687 80.0599 336.149 80.1934 336.729 80.1934C337.269 80.1934 337.676 80.0924 337.949 79.8906C338.229 79.6823 338.369 79.4121 338.369 79.0801ZM347.803 82.1953C346.253 82.1953 344.99 81.7201 344.014 80.7695C343.044 79.819 342.559 78.5527 342.559 76.9707V76.6973C342.559 75.6361 342.764 74.6888 343.174 73.8555C343.584 73.0156 344.163 72.3711 344.912 71.9219C345.667 71.4661 346.527 71.2383 347.49 71.2383C348.936 71.2383 350.072 71.694 350.898 72.6055C351.732 73.5169 352.148 74.8092 352.148 76.4824V77.6348H345.42C345.511 78.3249 345.785 78.8783 346.24 79.2949C346.702 79.7116 347.285 79.9199 347.988 79.9199C349.076 79.9199 349.925 79.526 350.537 78.7383L351.924 80.291C351.501 80.89 350.928 81.3587 350.205 81.6973C349.482 82.0293 348.682 82.1953 347.803 82.1953ZM347.48 73.5234C346.921 73.5234 346.465 73.7122 346.113 74.0898C345.768 74.4674 345.547 75.0078 345.449 75.7109H349.375V75.4863C349.362 74.8613 349.193 74.3796 348.867 74.041C348.542 73.696 348.079 73.5234 347.48 73.5234ZM359.697 74.0801C359.313 74.028 358.975 74.002 358.682 74.002C357.614 74.002 356.914 74.3633 356.582 75.0859V82H353.76V71.4336H356.426L356.504 72.6934C357.07 71.7233 357.855 71.2383 358.857 71.2383C359.17 71.2383 359.463 71.2806 359.736 71.3652L359.697 74.0801ZM366.787 79.0801C366.787 78.735 366.615 78.4648 366.27 78.2695C365.931 78.0677 365.384 77.8887 364.629 77.7324C362.116 77.2051 360.859 76.1374 360.859 74.5293C360.859 73.5918 361.247 72.8105 362.021 72.1855C362.803 71.554 363.822 71.2383 365.078 71.2383C366.419 71.2383 367.49 71.554 368.291 72.1855C369.098 72.8171 369.502 73.6374 369.502 74.6465H366.68C366.68 74.2428 366.549 73.9108 366.289 73.6504C366.029 73.3835 365.622 73.25 365.068 73.25C364.593 73.25 364.225 73.3574 363.965 73.5723C363.704 73.7871 363.574 74.0605 363.574 74.3926C363.574 74.7051 363.721 74.959 364.014 75.1543C364.313 75.3431 364.814 75.5091 365.518 75.6523C366.221 75.7891 366.813 75.9453 367.295 76.1211C368.786 76.668 369.531 77.6152 369.531 78.9629C369.531 79.9264 369.118 80.7077 368.291 81.3066C367.464 81.8991 366.396 82.1953 365.088 82.1953C364.202 82.1953 363.415 82.0391 362.725 81.7266C362.041 81.4076 361.504 80.9746 361.113 80.4277C360.723 79.8743 360.527 79.2786 360.527 78.6406H363.203C363.229 79.1419 363.415 79.526 363.76 79.793C364.105 80.0599 364.567 80.1934 365.146 80.1934C365.687 80.1934 366.094 80.0924 366.367 79.8906C366.647 79.6823 366.787 79.4121 366.787 79.0801Z" fill="black"/>
<circle cx="76" cy="83" r="36" fill="#FFF6F7"/>
<path fill-rule="evenodd" clip-rule="evenodd" d="M65.7071 76.2929C65.3166 75.9024 64.6834 75.9024 64.2929 76.2929C63.9024 76.6834 63.9024 77.3166 64.2929 77.7071L70.8787 84.2929C72.0503 85.4645 73.9497 85.4645 75.1213 84.2929L76.2929 83.1213C76.6834 82.7308 77.3166 82.7308 77.7071 83.1213L83.2929 88.7071L81.7071 90.2929C81.4158 90.5842 81.5821 91.0832 81.9899 91.1414L87.34 91.9057C87.67 91.9529 87.9529 91.67 87.9057 91.34L87.1414 85.9899C87.0832 85.5821 86.5842 85.4158 86.2929 85.7071L84.7071 87.2929L79.1213 81.7071C77.9497 80.5355 76.0503 80.5355 74.8787 81.7071L73.7071 82.8787C73.3166 83.2692 72.6834 83.2692 72.2929 82.8787L65.7071 76.2929Z" fill="#FF4C61"/>
<rect opacity="0.4" x="444" y="78" width="24" height="3" rx="1.5" fill="#A6ACBE"/>
<rect opacity="0.4" x="444" y="85" width="24" height="3" rx="1.5" fill="#A6ACBE"/>
<rect y="188" width="500" height="165" rx="8" fill="white"/>
<path d="M141.758 283.57V285.141H141.523C140.461 285.156 139.612 285.448 138.977 286.016C138.341 286.583 137.964 287.388 137.844 288.43C138.453 287.789 139.232 287.469 140.18 287.469C141.185 287.469 141.977 287.823 142.555 288.531C143.138 289.24 143.43 290.154 143.43 291.273C143.43 292.43 143.089 293.367 142.406 294.086C141.729 294.799 140.839 295.156 139.734 295.156C138.599 295.156 137.677 294.737 136.969 293.898C136.266 293.06 135.914 291.961 135.914 290.602V289.953C135.914 287.958 136.398 286.396 137.367 285.266C138.341 284.135 139.74 283.57 141.562 283.57H141.758ZM139.719 289C139.302 289 138.919 289.117 138.57 289.352C138.227 289.586 137.974 289.898 137.812 290.289V290.867C137.812 291.711 137.99 292.383 138.344 292.883C138.698 293.378 139.156 293.625 139.719 293.625C140.281 293.625 140.727 293.414 141.055 292.992C141.383 292.57 141.547 292.016 141.547 291.328C141.547 290.641 141.38 290.081 141.047 289.648C140.714 289.216 140.271 289 139.719 289ZM152.109 286.625C152.109 287.182 151.966 287.68 151.68 288.117C151.393 288.549 151.003 288.891 150.508 289.141C151.102 289.417 151.557 289.794 151.875 290.273C152.198 290.753 152.359 291.294 152.359 291.898C152.359 292.898 152.021 293.693 151.344 294.281C150.667 294.865 149.766 295.156 148.641 295.156C147.51 295.156 146.604 294.862 145.922 294.273C145.245 293.685 144.906 292.893 144.906 291.898C144.906 291.289 145.068 290.742 145.391 290.258C145.714 289.773 146.167 289.401 146.75 289.141C146.26 288.891 145.872 288.549 145.586 288.117C145.305 287.68 145.164 287.182 145.164 286.625C145.164 285.656 145.477 284.888 146.102 284.32C146.727 283.753 147.57 283.469 148.633 283.469C149.701 283.469 150.547 283.753 151.172 284.32C151.797 284.888 152.109 285.656 152.109 286.625ZM150.461 291.805C150.461 291.242 150.292 290.789 149.953 290.445C149.62 290.096 149.177 289.922 148.625 289.922C148.073 289.922 147.63 290.094 147.297 290.438C146.969 290.781 146.805 291.237 146.805 291.805C146.805 292.362 146.966 292.807 147.289 293.141C147.617 293.474 148.068 293.641 148.641 293.641C149.214 293.641 149.659 293.479 149.977 293.156C150.299 292.833 150.461 292.383 150.461 291.805ZM150.219 286.695C150.219 286.201 150.076 285.794 149.789 285.477C149.503 285.154 149.117 284.992 148.633 284.992C148.148 284.992 147.766 285.146 147.484 285.453C147.203 285.755 147.062 286.169 147.062 286.695C147.062 287.216 147.203 287.63 147.484 287.938C147.771 288.245 148.156 288.398 148.641 288.398C149.125 288.398 149.508 288.245 149.789 287.938C150.076 287.63 150.219 287.216 150.219 286.695ZM153.961 285.812C153.961 285.125 154.182 284.562 154.625 284.125C155.068 283.682 155.648 283.461 156.367 283.461C157.096 283.461 157.68 283.682 158.117 284.125C158.56 284.562 158.781 285.138 158.781 285.852V286.414C158.781 287.096 158.56 287.656 158.117 288.094C157.68 288.531 157.102 288.75 156.383 288.75C155.68 288.75 155.099 288.536 154.641 288.109C154.188 287.677 153.961 287.096 153.961 286.367V285.812ZM155.289 286.414C155.289 286.773 155.388 287.065 155.586 287.289C155.789 287.508 156.055 287.617 156.383 287.617C156.706 287.617 156.966 287.508 157.164 287.289C157.362 287.065 157.461 286.763 157.461 286.383V285.812C157.461 285.453 157.359 285.161 157.156 284.938C156.958 284.714 156.695 284.602 156.367 284.602C156.039 284.602 155.776 284.716 155.578 284.945C155.385 285.169 155.289 285.466 155.289 285.836V286.414ZM159.43 292.211C159.43 291.513 159.656 290.948 160.109 290.516C160.562 290.083 161.141 289.867 161.844 289.867C162.552 289.867 163.13 290.083 163.578 290.516C164.031 290.948 164.258 291.531 164.258 292.266V292.82C164.258 293.497 164.039 294.057 163.602 294.5C163.169 294.938 162.589 295.156 161.859 295.156C161.13 295.156 160.542 294.94 160.094 294.508C159.651 294.07 159.43 293.495 159.43 292.781V292.211ZM160.758 292.82C160.758 293.174 160.859 293.466 161.062 293.695C161.271 293.919 161.536 294.031 161.859 294.031C162.193 294.031 162.453 293.924 162.641 293.711C162.833 293.492 162.93 293.188 162.93 292.797V292.211C162.93 291.846 162.828 291.555 162.625 291.336C162.422 291.117 162.161 291.008 161.844 291.008C161.521 291.008 161.258 291.117 161.055 291.336C160.857 291.555 160.758 291.857 160.758 292.242V292.82ZM156.773 294.148L155.797 293.586L161.352 284.695L162.328 285.258L156.773 294.148ZM171.68 286.547L171.734 287.43C172.328 286.737 173.141 286.391 174.172 286.391C175.302 286.391 176.076 286.823 176.492 287.688C177.107 286.823 177.971 286.391 179.086 286.391C180.018 286.391 180.711 286.648 181.164 287.164C181.622 287.68 181.857 288.44 181.867 289.445V295H179.969V289.5C179.969 288.964 179.852 288.57 179.617 288.32C179.383 288.07 178.995 287.945 178.453 287.945C178.021 287.945 177.667 288.062 177.391 288.297C177.12 288.526 176.93 288.828 176.82 289.203L176.828 295H174.93V289.438C174.904 288.443 174.396 287.945 173.406 287.945C172.646 287.945 172.107 288.255 171.789 288.875V295H169.891V286.547H171.68ZM183.461 290.695C183.461 289.867 183.625 289.122 183.953 288.461C184.281 287.794 184.742 287.284 185.336 286.93C185.93 286.57 186.612 286.391 187.383 286.391C188.523 286.391 189.448 286.758 190.156 287.492C190.87 288.227 191.255 289.201 191.312 290.414L191.32 290.859C191.32 291.693 191.159 292.438 190.836 293.094C190.518 293.75 190.06 294.258 189.461 294.617C188.867 294.977 188.18 295.156 187.398 295.156C186.206 295.156 185.25 294.76 184.531 293.969C183.818 293.172 183.461 292.112 183.461 290.789V290.695ZM185.359 290.859C185.359 291.729 185.539 292.411 185.898 292.906C186.258 293.396 186.758 293.641 187.398 293.641C188.039 293.641 188.536 293.391 188.891 292.891C189.25 292.391 189.43 291.659 189.43 290.695C189.43 289.841 189.245 289.164 188.875 288.664C188.51 288.164 188.013 287.914 187.383 287.914C186.763 287.914 186.271 288.161 185.906 288.656C185.542 289.146 185.359 289.88 185.359 290.859ZM197.352 288.281C197.102 288.24 196.844 288.219 196.578 288.219C195.708 288.219 195.122 288.552 194.82 289.219V295H192.922V286.547H194.734L194.781 287.492C195.24 286.758 195.875 286.391 196.688 286.391C196.958 286.391 197.182 286.427 197.359 286.5L197.352 288.281ZM202.117 295.156C200.914 295.156 199.938 294.779 199.188 294.023C198.443 293.263 198.07 292.253 198.07 290.992V290.758C198.07 289.914 198.232 289.161 198.555 288.5C198.883 287.833 199.341 287.315 199.93 286.945C200.518 286.576 201.174 286.391 201.898 286.391C203.049 286.391 203.938 286.758 204.562 287.492C205.193 288.227 205.508 289.266 205.508 290.609V291.375H199.984C200.042 292.073 200.273 292.625 200.68 293.031C201.091 293.438 201.607 293.641 202.227 293.641C203.096 293.641 203.805 293.289 204.352 292.586L205.375 293.562C205.036 294.068 204.583 294.461 204.016 294.742C203.453 295.018 202.82 295.156 202.117 295.156ZM201.891 287.914C201.37 287.914 200.948 288.096 200.625 288.461C200.307 288.826 200.104 289.333 200.016 289.984H203.633V289.844C203.591 289.208 203.422 288.729 203.125 288.406C202.828 288.078 202.417 287.914 201.891 287.914ZM213.352 284.492V286.547H214.844V287.953H213.352V292.672C213.352 292.995 213.414 293.229 213.539 293.375C213.669 293.516 213.898 293.586 214.227 293.586C214.445 293.586 214.667 293.56 214.891 293.508V294.977C214.458 295.096 214.042 295.156 213.641 295.156C212.182 295.156 211.453 294.352 211.453 292.742V287.953H210.062V286.547H211.453V284.492H213.352ZM218.172 287.469C218.792 286.75 219.576 286.391 220.523 286.391C222.326 286.391 223.24 287.419 223.266 289.477V295H221.367V289.547C221.367 288.964 221.24 288.552 220.984 288.312C220.734 288.068 220.365 287.945 219.875 287.945C219.115 287.945 218.547 288.284 218.172 288.961V295H216.273V283H218.172V287.469ZM230.242 295C230.159 294.839 230.086 294.576 230.023 294.211C229.419 294.841 228.68 295.156 227.805 295.156C226.956 295.156 226.263 294.914 225.727 294.43C225.19 293.945 224.922 293.346 224.922 292.633C224.922 291.732 225.255 291.042 225.922 290.562C226.594 290.078 227.552 289.836 228.797 289.836H229.961V289.281C229.961 288.844 229.839 288.495 229.594 288.234C229.349 287.969 228.977 287.836 228.477 287.836C228.044 287.836 227.69 287.945 227.414 288.164C227.138 288.378 227 288.651 227 288.984H225.102C225.102 288.521 225.255 288.089 225.562 287.688C225.87 287.281 226.286 286.964 226.812 286.734C227.344 286.505 227.935 286.391 228.586 286.391C229.576 286.391 230.365 286.641 230.953 287.141C231.542 287.635 231.844 288.333 231.859 289.234V293.047C231.859 293.807 231.966 294.414 232.18 294.867V295H230.242ZM228.156 293.633C228.531 293.633 228.883 293.542 229.211 293.359C229.544 293.177 229.794 292.932 229.961 292.625V291.031H228.938C228.234 291.031 227.706 291.154 227.352 291.398C226.997 291.643 226.82 291.99 226.82 292.438C226.82 292.802 226.94 293.094 227.18 293.312C227.424 293.526 227.75 293.633 228.156 293.633ZM235.609 286.547L235.664 287.523C236.289 286.768 237.109 286.391 238.125 286.391C239.885 286.391 240.781 287.398 240.812 289.414V295H238.914V289.523C238.914 288.987 238.797 288.591 238.562 288.336C238.333 288.076 237.956 287.945 237.43 287.945C236.664 287.945 236.094 288.292 235.719 288.984V295H233.82V286.547H235.609ZM248.758 295H246.859V283H248.758V295ZM255.883 295C255.799 294.839 255.727 294.576 255.664 294.211C255.06 294.841 254.32 295.156 253.445 295.156C252.596 295.156 251.904 294.914 251.367 294.43C250.831 293.945 250.562 293.346 250.562 292.633C250.562 291.732 250.896 291.042 251.562 290.562C252.234 290.078 253.193 289.836 254.438 289.836H255.602V289.281C255.602 288.844 255.479 288.495 255.234 288.234C254.99 287.969 254.617 287.836 254.117 287.836C253.685 287.836 253.331 287.945 253.055 288.164C252.779 288.378 252.641 288.651 252.641 288.984H250.742C250.742 288.521 250.896 288.089 251.203 287.688C251.51 287.281 251.927 286.964 252.453 286.734C252.984 286.505 253.576 286.391 254.227 286.391C255.216 286.391 256.005 286.641 256.594 287.141C257.182 287.635 257.484 288.333 257.5 289.234V293.047C257.5 293.807 257.607 294.414 257.82 294.867V295H255.883ZM253.797 293.633C254.172 293.633 254.523 293.542 254.852 293.359C255.185 293.177 255.435 292.932 255.602 292.625V291.031H254.578C253.875 291.031 253.346 291.154 252.992 291.398C252.638 291.643 252.461 291.99 252.461 292.438C252.461 292.802 252.581 293.094 252.82 293.312C253.065 293.526 253.391 293.633 253.797 293.633ZM264.227 292.703C264.227 292.365 264.086 292.107 263.805 291.93C263.529 291.753 263.068 291.596 262.422 291.461C261.776 291.326 261.237 291.154 260.805 290.945C259.857 290.487 259.383 289.823 259.383 288.953C259.383 288.224 259.69 287.615 260.305 287.125C260.919 286.635 261.701 286.391 262.648 286.391C263.659 286.391 264.474 286.641 265.094 287.141C265.719 287.641 266.031 288.289 266.031 289.086H264.133C264.133 288.721 263.997 288.419 263.727 288.18C263.456 287.935 263.096 287.812 262.648 287.812C262.232 287.812 261.891 287.909 261.625 288.102C261.365 288.294 261.234 288.552 261.234 288.875C261.234 289.167 261.357 289.393 261.602 289.555C261.846 289.716 262.341 289.88 263.086 290.047C263.831 290.208 264.414 290.404 264.836 290.633C265.263 290.857 265.578 291.128 265.781 291.445C265.99 291.763 266.094 292.148 266.094 292.602C266.094 293.362 265.779 293.979 265.148 294.453C264.518 294.922 263.693 295.156 262.672 295.156C261.979 295.156 261.362 295.031 260.82 294.781C260.279 294.531 259.857 294.188 259.555 293.75C259.253 293.312 259.102 292.841 259.102 292.336H260.945C260.971 292.784 261.141 293.13 261.453 293.375C261.766 293.615 262.18 293.734 262.695 293.734C263.195 293.734 263.576 293.641 263.836 293.453C264.096 293.26 264.227 293.01 264.227 292.703ZM270.133 284.492V286.547H271.625V287.953H270.133V292.672C270.133 292.995 270.195 293.229 270.32 293.375C270.451 293.516 270.68 293.586 271.008 293.586C271.227 293.586 271.448 293.56 271.672 293.508V294.977C271.24 295.096 270.823 295.156 270.422 295.156C268.964 295.156 268.234 294.352 268.234 292.742V287.953H266.844V286.547H268.234V284.492H270.133ZM280.023 292.281L281.742 286.547H283.766L280.406 296.281C279.891 297.703 279.016 298.414 277.781 298.414C277.505 298.414 277.201 298.367 276.867 298.273V296.805L277.227 296.828C277.706 296.828 278.065 296.74 278.305 296.562C278.549 296.391 278.742 296.099 278.883 295.688L279.156 294.961L276.188 286.547H278.234L280.023 292.281ZM288.477 295.156C287.273 295.156 286.297 294.779 285.547 294.023C284.802 293.263 284.43 292.253 284.43 290.992V290.758C284.43 289.914 284.591 289.161 284.914 288.5C285.242 287.833 285.701 287.315 286.289 286.945C286.878 286.576 287.534 286.391 288.258 286.391C289.409 286.391 290.297 286.758 290.922 287.492C291.552 288.227 291.867 289.266 291.867 290.609V291.375H286.344C286.401 292.073 286.633 292.625 287.039 293.031C287.451 293.438 287.966 293.641 288.586 293.641C289.456 293.641 290.164 293.289 290.711 292.586L291.734 293.562C291.396 294.068 290.943 294.461 290.375 294.742C289.812 295.018 289.18 295.156 288.477 295.156ZM288.25 287.914C287.729 287.914 287.307 288.096 286.984 288.461C286.667 288.826 286.464 289.333 286.375 289.984H289.992V289.844C289.951 289.208 289.781 288.729 289.484 288.406C289.188 288.078 288.776 287.914 288.25 287.914ZM298.398 295C298.315 294.839 298.242 294.576 298.18 294.211C297.576 294.841 296.836 295.156 295.961 295.156C295.112 295.156 294.419 294.914 293.883 294.43C293.346 293.945 293.078 293.346 293.078 292.633C293.078 291.732 293.411 291.042 294.078 290.562C294.75 290.078 295.708 289.836 296.953 289.836H298.117V289.281C298.117 288.844 297.995 288.495 297.75 288.234C297.505 287.969 297.133 287.836 296.633 287.836C296.201 287.836 295.846 287.945 295.57 288.164C295.294 288.378 295.156 288.651 295.156 288.984H293.258C293.258 288.521 293.411 288.089 293.719 287.688C294.026 287.281 294.443 286.964 294.969 286.734C295.5 286.505 296.091 286.391 296.742 286.391C297.732 286.391 298.521 286.641 299.109 287.141C299.698 287.635 300 288.333 300.016 289.234V293.047C300.016 293.807 300.122 294.414 300.336 294.867V295H298.398ZM296.312 293.633C296.688 293.633 297.039 293.542 297.367 293.359C297.701 293.177 297.951 292.932 298.117 292.625V291.031H297.094C296.391 291.031 295.862 291.154 295.508 291.398C295.154 291.643 294.977 291.99 294.977 292.438C294.977 292.802 295.096 293.094 295.336 293.312C295.581 293.526 295.906 293.633 296.312 293.633ZM306.43 288.281C306.18 288.24 305.922 288.219 305.656 288.219C304.786 288.219 304.201 288.552 303.898 289.219V295H302V286.547H303.812L303.859 287.492C304.318 286.758 304.953 286.391 305.766 286.391C306.036 286.391 306.26 286.427 306.438 286.5L306.43 288.281Z" fill="#A6ACBE"/>
<path d="M143.623 255.635V257.959H143.35C142.074 257.979 141.045 258.311 140.264 258.955C139.489 259.6 139.023 260.495 138.867 261.641C139.622 260.872 140.576 260.488 141.729 260.488C142.965 260.488 143.949 260.931 144.678 261.816C145.407 262.702 145.771 263.867 145.771 265.312C145.771 266.237 145.57 267.074 145.166 267.822C144.769 268.571 144.202 269.154 143.467 269.57C142.738 269.987 141.911 270.195 140.986 270.195C139.489 270.195 138.278 269.674 137.354 268.633C136.436 267.591 135.977 266.201 135.977 264.463V263.447C135.977 261.904 136.266 260.544 136.846 259.365C137.432 258.18 138.268 257.266 139.355 256.621C140.449 255.97 141.715 255.641 143.154 255.635H143.623ZM140.869 262.754C140.413 262.754 140 262.874 139.629 263.115C139.258 263.35 138.984 263.662 138.809 264.053V264.912C138.809 265.856 138.994 266.595 139.365 267.129C139.736 267.656 140.257 267.92 140.928 267.92C141.533 267.92 142.021 267.682 142.393 267.207C142.77 266.725 142.959 266.104 142.959 265.342C142.959 264.567 142.77 263.942 142.393 263.467C142.015 262.992 141.507 262.754 140.869 262.754ZM157.021 264.121C157.021 266.087 156.615 267.591 155.801 268.633C154.987 269.674 153.796 270.195 152.227 270.195C150.677 270.195 149.492 269.684 148.672 268.662C147.852 267.64 147.432 266.175 147.412 264.268V261.65C147.412 259.665 147.822 258.158 148.643 257.129C149.469 256.1 150.658 255.586 152.207 255.586C153.757 255.586 154.941 256.097 155.762 257.119C156.582 258.135 157.002 259.596 157.021 261.504V264.121ZM154.199 261.25C154.199 260.072 154.036 259.215 153.711 258.682C153.392 258.141 152.891 257.871 152.207 257.871C151.543 257.871 151.051 258.128 150.732 258.643C150.42 259.15 150.254 259.948 150.234 261.035V264.492C150.234 265.651 150.391 266.514 150.703 267.08C151.022 267.64 151.53 267.92 152.227 267.92C152.917 267.92 153.415 267.65 153.721 267.109C154.027 266.569 154.186 265.742 154.199 264.629V261.25ZM168.682 270H158.936V268.066L163.535 263.164C164.167 262.474 164.632 261.872 164.932 261.357C165.238 260.843 165.391 260.355 165.391 259.893C165.391 259.261 165.231 258.766 164.912 258.408C164.593 258.044 164.137 257.861 163.545 257.861C162.907 257.861 162.402 258.083 162.031 258.525C161.667 258.962 161.484 259.538 161.484 260.254H158.652C158.652 259.388 158.857 258.597 159.268 257.881C159.684 257.165 160.27 256.605 161.025 256.201C161.781 255.791 162.637 255.586 163.594 255.586C165.059 255.586 166.195 255.938 167.002 256.641C167.816 257.344 168.223 258.337 168.223 259.619C168.223 260.322 168.04 261.038 167.676 261.768C167.311 262.497 166.686 263.346 165.801 264.316L162.568 267.725H168.682V270ZM181.846 268.926C181.149 269.772 180.186 270.195 178.955 270.195C177.822 270.195 176.956 269.87 176.357 269.219C175.765 268.568 175.462 267.614 175.449 266.357V259.434H178.271V266.26C178.271 267.36 178.773 267.91 179.775 267.91C180.732 267.91 181.39 267.578 181.748 266.914V259.434H184.58V270H181.924L181.846 268.926ZM192.432 267.08C192.432 266.735 192.259 266.465 191.914 266.27C191.576 266.068 191.029 265.889 190.273 265.732C187.76 265.205 186.504 264.137 186.504 262.529C186.504 261.592 186.891 260.811 187.666 260.186C188.447 259.554 189.466 259.238 190.723 259.238C192.064 259.238 193.135 259.554 193.936 260.186C194.743 260.817 195.146 261.637 195.146 262.646H192.324C192.324 262.243 192.194 261.911 191.934 261.65C191.673 261.383 191.266 261.25 190.713 261.25C190.238 261.25 189.87 261.357 189.609 261.572C189.349 261.787 189.219 262.061 189.219 262.393C189.219 262.705 189.365 262.959 189.658 263.154C189.958 263.343 190.459 263.509 191.162 263.652C191.865 263.789 192.458 263.945 192.939 264.121C194.43 264.668 195.176 265.615 195.176 266.963C195.176 267.926 194.762 268.708 193.936 269.307C193.109 269.899 192.041 270.195 190.732 270.195C189.847 270.195 189.059 270.039 188.369 269.727C187.686 269.408 187.148 268.975 186.758 268.428C186.367 267.874 186.172 267.279 186.172 266.641H188.848C188.874 267.142 189.059 267.526 189.404 267.793C189.749 268.06 190.212 268.193 190.791 268.193C191.331 268.193 191.738 268.092 192.012 267.891C192.292 267.682 192.432 267.412 192.432 267.08ZM201.865 270.195C200.316 270.195 199.053 269.72 198.076 268.77C197.106 267.819 196.621 266.553 196.621 264.971V264.697C196.621 263.636 196.826 262.689 197.236 261.855C197.646 261.016 198.226 260.371 198.975 259.922C199.73 259.466 200.589 259.238 201.553 259.238C202.998 259.238 204.134 259.694 204.961 260.605C205.794 261.517 206.211 262.809 206.211 264.482V265.635H199.482C199.574 266.325 199.847 266.878 200.303 267.295C200.765 267.712 201.348 267.92 202.051 267.92C203.138 267.92 203.988 267.526 204.6 266.738L205.986 268.291C205.563 268.89 204.99 269.359 204.268 269.697C203.545 270.029 202.744 270.195 201.865 270.195ZM201.543 261.523C200.983 261.523 200.527 261.712 200.176 262.09C199.831 262.467 199.609 263.008 199.512 263.711H203.438V263.486C203.424 262.861 203.255 262.38 202.93 262.041C202.604 261.696 202.142 261.523 201.543 261.523ZM213.76 262.08C213.376 262.028 213.037 262.002 212.744 262.002C211.676 262.002 210.977 262.363 210.645 263.086V270H207.822V259.434H210.488L210.566 260.693C211.133 259.723 211.917 259.238 212.92 259.238C213.232 259.238 213.525 259.281 213.799 259.365L213.76 262.08ZM220.85 267.08C220.85 266.735 220.677 266.465 220.332 266.27C219.993 266.068 219.447 265.889 218.691 265.732C216.178 265.205 214.922 264.137 214.922 262.529C214.922 261.592 215.309 260.811 216.084 260.186C216.865 259.554 217.884 259.238 219.141 259.238C220.482 259.238 221.553 259.554 222.354 260.186C223.161 260.817 223.564 261.637 223.564 262.646H220.742C220.742 262.243 220.612 261.911 220.352 261.65C220.091 261.383 219.684 261.25 219.131 261.25C218.656 261.25 218.288 261.357 218.027 261.572C217.767 261.787 217.637 262.061 217.637 262.393C217.637 262.705 217.783 262.959 218.076 263.154C218.376 263.343 218.877 263.509 219.58 263.652C220.283 263.789 220.876 263.945 221.357 264.121C222.848 264.668 223.594 265.615 223.594 266.963C223.594 267.926 223.18 268.708 222.354 269.307C221.527 269.899 220.459 270.195 219.15 270.195C218.265 270.195 217.477 270.039 216.787 269.727C216.104 269.408 215.566 268.975 215.176 268.428C214.785 267.874 214.59 267.279 214.59 266.641H217.266C217.292 267.142 217.477 267.526 217.822 267.793C218.167 268.06 218.63 268.193 219.209 268.193C219.749 268.193 220.156 268.092 220.43 267.891C220.71 267.682 220.85 267.412 220.85 267.08ZM233.379 270H230.547V259.434H233.379V270ZM230.381 256.699C230.381 256.276 230.521 255.928 230.801 255.654C231.087 255.381 231.475 255.244 231.963 255.244C232.445 255.244 232.829 255.381 233.115 255.654C233.402 255.928 233.545 256.276 233.545 256.699C233.545 257.129 233.398 257.48 233.105 257.754C232.819 258.027 232.438 258.164 231.963 258.164C231.488 258.164 231.104 258.027 230.811 257.754C230.524 257.48 230.381 257.129 230.381 256.699ZM235.273 264.639C235.273 262.992 235.641 261.68 236.377 260.703C237.119 259.727 238.132 259.238 239.414 259.238C240.443 259.238 241.292 259.622 241.963 260.391V255H244.795V270H242.246L242.109 268.877C241.406 269.756 240.501 270.195 239.395 270.195C238.151 270.195 237.152 269.707 236.396 268.73C235.648 267.747 235.273 266.383 235.273 264.639ZM238.096 264.844C238.096 265.833 238.268 266.592 238.613 267.119C238.958 267.646 239.46 267.91 240.117 267.91C240.99 267.91 241.605 267.542 241.963 266.807V262.637C241.611 261.901 241.003 261.533 240.137 261.533C238.776 261.533 238.096 262.637 238.096 264.844ZM251.846 270.195C250.296 270.195 249.033 269.72 248.057 268.77C247.087 267.819 246.602 266.553 246.602 264.971V264.697C246.602 263.636 246.807 262.689 247.217 261.855C247.627 261.016 248.206 260.371 248.955 259.922C249.71 259.466 250.57 259.238 251.533 259.238C252.979 259.238 254.115 259.694 254.941 260.605C255.775 261.517 256.191 262.809 256.191 264.482V265.635H249.463C249.554 266.325 249.827 266.878 250.283 267.295C250.745 267.712 251.328 267.92 252.031 267.92C253.118 267.92 253.968 267.526 254.58 266.738L255.967 268.291C255.544 268.89 254.971 269.359 254.248 269.697C253.525 270.029 252.725 270.195 251.846 270.195ZM251.523 261.523C250.964 261.523 250.508 261.712 250.156 262.09C249.811 262.467 249.59 263.008 249.492 263.711H253.418V263.486C253.405 262.861 253.236 262.38 252.91 262.041C252.585 261.696 252.122 261.523 251.523 261.523ZM260.4 259.434L260.488 260.654C261.243 259.71 262.256 259.238 263.525 259.238C264.645 259.238 265.479 259.567 266.025 260.225C266.572 260.882 266.852 261.865 266.865 263.174V270H264.043V263.242C264.043 262.643 263.913 262.21 263.652 261.943C263.392 261.67 262.959 261.533 262.354 261.533C261.559 261.533 260.964 261.872 260.566 262.549V270H257.744V259.434H260.4ZM272.393 256.836V259.434H274.199V261.504H272.393V266.777C272.393 267.168 272.467 267.448 272.617 267.617C272.767 267.786 273.053 267.871 273.477 267.871C273.789 267.871 274.066 267.848 274.307 267.803V269.941C273.753 270.111 273.184 270.195 272.598 270.195C270.618 270.195 269.609 269.196 269.57 267.197V261.504H268.027V259.434H269.57V256.836H272.393ZM278.75 270H275.918V259.434H278.75V270ZM275.752 256.699C275.752 256.276 275.892 255.928 276.172 255.654C276.458 255.381 276.846 255.244 277.334 255.244C277.816 255.244 278.2 255.381 278.486 255.654C278.773 255.928 278.916 256.276 278.916 256.699C278.916 257.129 278.77 257.48 278.477 257.754C278.19 258.027 277.809 258.164 277.334 258.164C276.859 258.164 276.475 258.027 276.182 257.754C275.895 257.48 275.752 257.129 275.752 256.699ZM281.768 270V261.504H280.195V259.434H281.768V258.945C281.781 257.617 282.188 256.595 282.988 255.879C283.796 255.156 284.932 254.795 286.396 254.795C287.275 254.795 288.343 254.987 289.6 255.371L289.189 257.705C288.551 257.516 288.057 257.396 287.705 257.344C287.354 257.285 286.976 257.256 286.572 257.256C285.257 257.256 284.6 257.839 284.6 259.004V259.434H286.68V261.504H284.6V270H281.768ZM290.918 270H288.086V259.434H290.918V270ZM298.115 270.195C296.566 270.195 295.303 269.72 294.326 268.77C293.356 267.819 292.871 266.553 292.871 264.971V264.697C292.871 263.636 293.076 262.689 293.486 261.855C293.896 261.016 294.476 260.371 295.225 259.922C295.98 259.466 296.839 259.238 297.803 259.238C299.248 259.238 300.384 259.694 301.211 260.605C302.044 261.517 302.461 262.809 302.461 264.482V265.635H295.732C295.824 266.325 296.097 266.878 296.553 267.295C297.015 267.712 297.598 267.92 298.301 267.92C299.388 267.92 300.238 267.526 300.85 266.738L302.236 268.291C301.813 268.89 301.24 269.359 300.518 269.697C299.795 270.029 298.994 270.195 298.115 270.195ZM297.793 261.523C297.233 261.523 296.777 261.712 296.426 262.09C296.081 262.467 295.859 263.008 295.762 263.711H299.688V263.486C299.674 262.861 299.505 262.38 299.18 262.041C298.854 261.696 298.392 261.523 297.793 261.523ZM303.633 264.639C303.633 262.992 304.001 261.68 304.736 260.703C305.479 259.727 306.491 259.238 307.773 259.238C308.802 259.238 309.652 259.622 310.322 260.391V255H313.154V270H310.605L310.469 268.877C309.766 269.756 308.861 270.195 307.754 270.195C306.51 270.195 305.511 269.707 304.756 268.73C304.007 267.747 303.633 266.383 303.633 264.639ZM306.455 264.844C306.455 265.833 306.628 266.592 306.973 267.119C307.318 267.646 307.819 267.91 308.477 267.91C309.349 267.91 309.964 267.542 310.322 266.807V262.637C309.971 261.901 309.362 261.533 308.496 261.533C307.135 261.533 306.455 262.637 306.455 264.844Z" fill="black"/>
<circle cx="76" cy="271" r="36" fill="#F8F5FD"/>
<path fill-rule="evenodd" clip-rule="evenodd" d="M76.2381 261C74.2906 261.019 72.5263 262.023 71.9487 263.756C71.3242 265.63 71.8136 267.077 72.5747 268.541C72.7414 268.861 72.916 269.173 73.0963 269.495C73.1262 269.548 73.1562 269.602 73.1863 269.656C73.3945 270.028 73.6087 270.416 73.7986 270.809C74.1762 271.589 74.5 272.469 74.5 273.44C74.5 274.695 73.6491 275.55 72.8223 276.127C72.055 276.662 71.0706 277.122 70.1703 277.543C70.0876 277.581 70.0055 277.62 69.9244 277.658C68.9076 278.134 68.012 278.574 67.3656 279.079C66.7308 279.575 66.5 280.004 66.5 280.44C66.5 280.992 66.0523 281.44 65.5 281.44C64.9477 281.44 64.5 280.992 64.5 280.44C64.5 279.125 65.2692 278.179 66.1344 277.503C66.988 276.836 68.0924 276.308 69.0756 275.847C69.145 275.814 69.2138 275.782 69.282 275.75C70.2322 275.305 71.0598 274.918 71.6777 274.487C72.3509 274.017 72.5 273.684 72.5 273.44C72.5 272.911 72.3238 272.353 71.9983 271.68C71.8367 271.346 71.6485 271.004 71.4406 270.632C71.412 270.581 71.383 270.529 71.3537 270.476C71.1741 270.156 70.9825 269.814 70.8003 269.464C69.9364 267.802 69.1758 265.75 70.0513 263.123C70.9737 260.356 73.6808 259.025 76.219 259C78.7671 258.976 81.4961 260.266 82.4487 263.123C83.3384 265.793 82.4079 267.87 81.42 269.517C81.193 269.895 80.9842 270.22 80.7885 270.525C80.5249 270.935 80.2851 271.308 80.0565 271.725C79.6882 272.397 79.5 272.939 79.5 273.44C79.5 273.647 79.6042 273.917 80.2606 274.306C80.7843 274.617 81.4439 274.88 82.2222 275.189C82.4318 275.272 82.6499 275.359 82.8764 275.451C83.8763 275.857 85.0113 276.36 85.8949 277.105C86.8202 277.886 87.5 278.961 87.5 280.44C87.5 280.992 87.0523 281.44 86.5 281.44C85.9477 281.44 85.5 280.992 85.5 280.44C85.5 279.669 85.1798 279.119 84.6051 278.634C83.9887 278.114 83.1237 277.71 82.1236 277.304C81.9437 277.231 81.7569 277.157 81.5667 277.081C80.7707 276.766 79.9136 276.426 79.2394 276.026C78.3958 275.525 77.5 274.732 77.5 273.44C77.5 272.441 77.8743 271.545 78.3029 270.764C78.5478 270.317 78.8682 269.815 79.1729 269.337C79.364 269.038 79.549 268.748 79.705 268.488C80.5921 267.009 81.1616 265.587 80.5513 263.756C79.9467 261.942 78.1757 260.982 76.2381 261Z" fill="#6F52ED"/>
<rect opacity="0.4" x="444" y="266" width="24" height="3" rx="1.5" fill="#A6ACBE"/>
<rect opacity="0.4" x="444" y="273" width="24" height="3" rx="1.5" fill="#A6ACBE"/>
</svg>
