<svg width="500" height="270" viewBox="0 0 500 270" fill="none" xmlns="http://www.w3.org/2000/svg">
<rect width="500" height="270" rx="8" transform="matrix(-1 0 0 1 500 0)" fill="white"/>
<path d="M444.988 243.653V238.18H443.645V243.653C443.645 244.172 443.756 244.614 443.978 244.979C444.2 245.345 444.503 245.624 444.886 245.817C445.269 246.011 445.704 246.107 446.191 246.107C446.689 246.107 447.131 246.023 447.518 245.855C447.901 245.687 448.201 245.429 448.42 245.082C448.638 244.734 448.748 244.294 448.748 243.76H447.394C447.394 244.068 447.346 244.317 447.249 244.507C447.149 244.693 447.009 244.829 446.83 244.915C446.647 244.997 446.434 245.039 446.191 245.039C445.958 245.039 445.752 244.987 445.573 244.883C445.391 244.775 445.247 244.62 445.144 244.416C445.04 244.208 444.988 243.954 444.988 243.653ZM438.945 244.834V242.063C438.945 241.855 438.983 241.676 439.058 241.526C439.133 241.375 439.248 241.259 439.402 241.177C439.552 241.094 439.742 241.053 439.971 241.053C440.182 241.053 440.365 241.089 440.519 241.161C440.673 241.232 440.793 241.329 440.879 241.451C440.965 241.572 441.008 241.71 441.008 241.864H442.297C442.297 241.635 442.241 241.413 442.13 241.198C442.019 240.983 441.858 240.792 441.647 240.624C441.436 240.455 441.183 240.323 440.89 240.226C440.596 240.129 440.267 240.081 439.901 240.081C439.465 240.081 439.078 240.154 438.741 240.301C438.401 240.448 438.134 240.67 437.941 240.967C437.744 241.261 437.646 241.63 437.646 242.074V244.657C437.646 244.922 437.628 245.16 437.592 245.372C437.552 245.579 437.497 245.76 437.425 245.914V246H438.752C438.813 245.86 438.861 245.683 438.897 245.468C438.929 245.25 438.945 245.039 438.945 244.834ZM438.757 242.466L438.747 243.266H439.676C439.916 243.266 440.127 243.289 440.31 243.336C440.492 243.379 440.644 243.443 440.766 243.529C440.888 243.615 440.979 243.719 441.04 243.841C441.101 243.963 441.131 244.1 441.131 244.254C441.131 244.408 441.096 244.55 441.024 244.679C440.952 244.804 440.848 244.903 440.712 244.974C440.573 245.046 440.404 245.082 440.208 245.082C439.943 245.082 439.712 245.028 439.515 244.92C439.314 244.809 439.157 244.675 439.042 244.518C438.927 244.356 438.867 244.204 438.859 244.061L438.44 244.636C438.483 244.783 438.557 244.94 438.661 245.108C438.764 245.277 438.901 245.438 439.069 245.592C439.234 245.742 439.432 245.866 439.665 245.962C439.894 246.059 440.159 246.107 440.46 246.107C440.84 246.107 441.178 246.032 441.475 245.882C441.772 245.728 442.005 245.522 442.173 245.264C442.342 245.003 442.426 244.707 442.426 244.378C442.426 244.07 442.368 243.798 442.254 243.562C442.136 243.322 441.964 243.121 441.738 242.96C441.509 242.799 441.23 242.677 440.9 242.595C440.571 242.509 440.195 242.466 439.772 242.466H438.757ZM435.008 241.429V246H436.303V240.188H435.083L435.008 241.429ZM435.239 242.879L435.658 242.874C435.655 242.462 435.597 242.084 435.486 241.741C435.372 241.397 435.214 241.102 435.014 240.854C434.81 240.607 434.566 240.418 434.283 240.285C434 240.149 433.685 240.081 433.338 240.081C433.059 240.081 432.806 240.12 432.581 240.199C432.351 240.274 432.156 240.398 431.995 240.57C431.83 240.742 431.705 240.965 431.619 241.241C431.533 241.513 431.49 241.848 431.49 242.246V246H432.79V242.24C432.79 241.961 432.831 241.741 432.914 241.58C432.992 241.415 433.109 241.299 433.263 241.23C433.413 241.159 433.601 241.123 433.827 241.123C434.049 241.123 434.247 241.17 434.423 241.263C434.598 241.356 434.747 241.483 434.869 241.644C434.987 241.805 435.078 241.991 435.143 242.203C435.207 242.414 435.239 242.639 435.239 242.879Z" fill="#A6ACBE"/>
<path d="M474.05 209.364L475.082 209.111L474.657 205.18H470.441V206.275H473.583L473.798 208.193C473.676 208.121 473.508 208.051 473.293 207.983C473.078 207.912 472.833 207.876 472.557 207.876C472.188 207.876 471.859 207.937 471.569 208.059C471.275 208.177 471.026 208.35 470.822 208.58C470.618 208.805 470.462 209.081 470.355 209.407C470.248 209.729 470.194 210.092 470.194 210.497C470.194 210.859 470.248 211.197 470.355 211.512C470.459 211.827 470.616 212.105 470.828 212.345C471.039 212.585 471.306 212.773 471.628 212.909C471.947 213.041 472.324 213.107 472.761 213.107C473.087 213.107 473.4 213.061 473.701 212.968C473.998 212.871 474.265 212.73 474.501 212.543C474.738 212.354 474.928 212.121 475.071 211.845C475.214 211.566 475.296 211.245 475.318 210.884H474.05C474.018 211.138 473.948 211.355 473.841 211.534C473.73 211.709 473.583 211.843 473.4 211.937C473.218 212.03 473.007 212.076 472.767 212.076C472.548 212.076 472.36 212.039 472.203 211.963C472.045 211.885 471.914 211.774 471.811 211.63C471.703 211.484 471.624 211.312 471.574 211.115C471.521 210.918 471.494 210.699 471.494 210.459C471.494 210.23 471.524 210.021 471.585 209.831C471.642 209.641 471.73 209.477 471.848 209.337C471.963 209.197 472.108 209.09 472.283 209.015C472.459 208.936 472.661 208.896 472.89 208.896C473.198 208.896 473.434 208.941 473.599 209.031C473.76 209.12 473.911 209.231 474.05 209.364Z" fill="#A6ACBE"/>
<path d="M471.875 173.153V181H473.169V174.689L475.087 175.339V174.27L472.031 173.153H471.875ZM464.06 176.435V177.713C464.06 178.325 464.121 178.848 464.243 179.281C464.361 179.711 464.533 180.06 464.758 180.329C464.984 180.597 465.254 180.794 465.569 180.919C465.881 181.045 466.23 181.107 466.617 181.107C466.925 181.107 467.211 181.068 467.476 180.989C467.737 180.91 467.974 180.787 468.185 180.619C468.396 180.45 468.577 180.234 468.728 179.969C468.874 179.7 468.989 179.38 469.071 179.007C469.15 178.635 469.189 178.203 469.189 177.713V176.435C469.189 175.819 469.129 175.299 469.007 174.877C468.885 174.451 468.711 174.105 468.486 173.84C468.26 173.572 467.992 173.377 467.68 173.255C467.365 173.133 467.014 173.072 466.627 173.072C466.316 173.072 466.029 173.112 465.768 173.19C465.503 173.266 465.267 173.386 465.059 173.55C464.848 173.715 464.669 173.93 464.522 174.195C464.372 174.456 464.257 174.773 464.178 175.146C464.099 175.514 464.06 175.944 464.06 176.435ZM465.354 177.896V176.241C465.354 175.93 465.372 175.656 465.408 175.419C465.444 175.18 465.498 174.977 465.569 174.812C465.637 174.644 465.723 174.508 465.827 174.404C465.931 174.297 466.049 174.22 466.182 174.173C466.314 174.123 466.463 174.098 466.627 174.098C466.828 174.098 467.007 174.138 467.165 174.216C467.322 174.292 467.455 174.413 467.562 174.582C467.669 174.75 467.752 174.972 467.809 175.248C467.863 175.52 467.89 175.851 467.89 176.241V177.896C467.89 178.211 467.872 178.488 467.836 178.728C467.8 178.968 467.746 179.174 467.675 179.346C467.603 179.514 467.517 179.654 467.417 179.765C467.313 179.872 467.195 179.951 467.062 180.001C466.926 180.051 466.778 180.076 466.617 180.076C466.413 180.076 466.232 180.037 466.074 179.958C465.917 179.879 465.784 179.754 465.677 179.582C465.569 179.407 465.489 179.179 465.435 178.9C465.381 178.621 465.354 178.286 465.354 177.896Z" fill="#A6ACBE"/>
<path d="M471.875 141.153V149H473.169V142.689L475.087 143.339V142.27L472.031 141.153H471.875ZM467.798 145.364L468.83 145.111L468.405 141.18H464.189V142.275H467.331L467.546 144.193C467.424 144.121 467.256 144.051 467.041 143.983C466.826 143.912 466.581 143.876 466.305 143.876C465.936 143.876 465.607 143.937 465.317 144.059C465.023 144.177 464.774 144.35 464.57 144.58C464.366 144.805 464.21 145.081 464.103 145.407C463.996 145.729 463.942 146.092 463.942 146.497C463.942 146.859 463.996 147.197 464.103 147.512C464.207 147.827 464.364 148.105 464.576 148.345C464.787 148.585 465.054 148.773 465.376 148.909C465.695 149.041 466.072 149.107 466.509 149.107C466.835 149.107 467.148 149.061 467.449 148.968C467.746 148.871 468.013 148.73 468.25 148.543C468.486 148.354 468.676 148.121 468.819 147.845C468.962 147.566 469.044 147.245 469.066 146.884H467.798C467.766 147.138 467.696 147.355 467.589 147.534C467.478 147.709 467.331 147.843 467.148 147.937C466.966 148.03 466.755 148.076 466.515 148.076C466.296 148.076 466.108 148.039 465.951 147.963C465.793 147.885 465.662 147.774 465.559 147.63C465.451 147.484 465.372 147.312 465.322 147.115C465.269 146.918 465.242 146.699 465.242 146.459C465.242 146.23 465.272 146.021 465.333 145.831C465.39 145.641 465.478 145.477 465.596 145.337C465.711 145.197 465.856 145.09 466.031 145.015C466.207 144.936 466.409 144.896 466.638 144.896C466.946 144.896 467.182 144.941 467.347 145.031C467.508 145.12 467.659 145.231 467.798 145.364Z" fill="#A6ACBE"/>
<path d="M470.167 115.969V117H475.409V116.114L472.863 113.337C472.584 113.022 472.364 112.75 472.203 112.521C472.042 112.291 471.929 112.085 471.864 111.903C471.796 111.717 471.762 111.536 471.762 111.36C471.762 111.113 471.809 110.897 471.902 110.71C471.991 110.521 472.124 110.372 472.299 110.265C472.475 110.154 472.688 110.098 472.938 110.098C473.229 110.098 473.472 110.161 473.669 110.286C473.866 110.411 474.014 110.585 474.115 110.807C474.215 111.026 474.265 111.276 474.265 111.559H475.56C475.56 111.104 475.456 110.689 475.248 110.313C475.04 109.933 474.74 109.633 474.346 109.411C473.952 109.185 473.477 109.072 472.922 109.072C472.4 109.072 471.956 109.16 471.59 109.335C471.225 109.511 470.948 109.76 470.758 110.082C470.564 110.404 470.468 110.786 470.468 111.226C470.468 111.47 470.507 111.711 470.586 111.951C470.665 112.191 470.778 112.431 470.924 112.671C471.068 112.907 471.238 113.145 471.435 113.385C471.632 113.622 471.848 113.861 472.084 114.105L473.776 115.969H470.167ZM464.06 112.435V113.713C464.06 114.325 464.121 114.848 464.243 115.281C464.361 115.711 464.533 116.06 464.758 116.329C464.984 116.597 465.254 116.794 465.569 116.919C465.881 117.045 466.23 117.107 466.617 117.107C466.925 117.107 467.211 117.068 467.476 116.989C467.737 116.91 467.974 116.787 468.185 116.619C468.396 116.45 468.577 116.234 468.728 115.969C468.874 115.7 468.989 115.38 469.071 115.007C469.15 114.635 469.189 114.203 469.189 113.713V112.435C469.189 111.819 469.129 111.299 469.007 110.877C468.885 110.451 468.711 110.105 468.486 109.84C468.26 109.572 467.992 109.377 467.68 109.255C467.365 109.133 467.014 109.072 466.627 109.072C466.316 109.072 466.029 109.112 465.768 109.19C465.503 109.266 465.267 109.386 465.059 109.55C464.848 109.715 464.669 109.93 464.522 110.195C464.372 110.456 464.257 110.773 464.178 111.146C464.099 111.514 464.06 111.944 464.06 112.435ZM465.354 113.896V112.241C465.354 111.93 465.372 111.656 465.408 111.419C465.444 111.18 465.498 110.977 465.569 110.812C465.637 110.644 465.723 110.508 465.827 110.404C465.931 110.297 466.049 110.22 466.182 110.173C466.314 110.123 466.463 110.098 466.627 110.098C466.828 110.098 467.007 110.138 467.165 110.216C467.322 110.292 467.455 110.413 467.562 110.582C467.669 110.75 467.752 110.972 467.809 111.248C467.863 111.52 467.89 111.851 467.89 112.241V113.896C467.89 114.211 467.872 114.488 467.836 114.728C467.8 114.968 467.746 115.174 467.675 115.346C467.603 115.514 467.517 115.654 467.417 115.765C467.313 115.872 467.195 115.951 467.062 116.001C466.926 116.051 466.778 116.076 466.617 116.076C466.413 116.076 466.232 116.037 466.074 115.958C465.917 115.879 465.784 115.754 465.677 115.582C465.569 115.407 465.489 115.179 465.435 114.9C465.381 114.621 465.354 114.286 465.354 113.896Z" fill="#A6ACBE"/>
<path d="M470.167 83.9688V85H475.409V84.1138L472.863 81.3369C472.584 81.0218 472.364 80.7497 472.203 80.5205C472.042 80.2913 471.929 80.0854 471.864 79.9028C471.796 79.7166 471.762 79.5358 471.762 79.3604C471.762 79.1133 471.809 78.8966 471.902 78.7104C471.991 78.5207 472.124 78.3721 472.299 78.2646C472.475 78.1536 472.688 78.0981 472.938 78.0981C473.229 78.0981 473.472 78.1608 473.669 78.2861C473.866 78.4115 474.014 78.5851 474.115 78.8071C474.215 79.0256 474.265 79.2762 474.265 79.5591H475.56C475.56 79.1043 475.456 78.689 475.248 78.313C475.04 77.9334 474.74 77.6326 474.346 77.4106C473.952 77.1851 473.477 77.0723 472.922 77.0723C472.4 77.0723 471.956 77.16 471.59 77.3354C471.225 77.5109 470.948 77.7598 470.758 78.082C470.564 78.4043 470.468 78.7856 470.468 79.2261C470.468 79.4696 470.507 79.7113 470.586 79.9512C470.665 80.1911 470.778 80.431 470.924 80.6709C471.068 80.9072 471.238 81.1453 471.435 81.3853C471.632 81.6216 471.848 81.8615 472.084 82.105L473.776 83.9688H470.167ZM467.798 81.3638L468.83 81.1113L468.405 77.1797H464.189V78.2754H467.331L467.546 80.1929C467.424 80.1213 467.256 80.0514 467.041 79.9834C466.826 79.9118 466.581 79.876 466.305 79.876C465.936 79.876 465.607 79.9368 465.317 80.0586C465.023 80.1768 464.774 80.3504 464.57 80.5796C464.366 80.8052 464.21 81.0809 464.103 81.4067C463.996 81.729 463.942 82.0924 463.942 82.4971C463.942 82.8587 463.996 83.1971 464.103 83.5122C464.207 83.8273 464.364 84.1048 464.576 84.3447C464.787 84.5846 465.054 84.7726 465.376 84.9087C465.695 85.0412 466.072 85.1074 466.509 85.1074C466.835 85.1074 467.148 85.0609 467.449 84.9678C467.746 84.8711 468.013 84.7297 468.25 84.5435C468.486 84.3537 468.676 84.1209 468.819 83.8452C468.962 83.5659 469.044 83.2454 469.066 82.8838H467.798C467.766 83.138 467.696 83.3547 467.589 83.5337C467.478 83.7091 467.331 83.8434 467.148 83.9365C466.966 84.0296 466.755 84.0762 466.515 84.0762C466.296 84.0762 466.108 84.0386 465.951 83.9634C465.793 83.8846 465.662 83.7736 465.559 83.6304C465.451 83.4836 465.372 83.3117 465.322 83.1147C465.269 82.9178 465.242 82.6994 465.242 82.4595C465.242 82.2303 465.272 82.0208 465.333 81.8311C465.39 81.6413 465.478 81.4766 465.596 81.3369C465.711 81.1973 465.856 81.0898 466.031 81.0146C466.207 80.9359 466.409 80.8965 466.638 80.8965C466.946 80.8965 467.182 80.9412 467.347 81.0308C467.508 81.1203 467.659 81.2313 467.798 81.3638Z" fill="#A6ACBE"/>
<path d="M469.602 31.9912H468.015C468.065 32.5964 468.235 33.1359 468.522 33.6099C468.81 34.0796 469.214 34.4499 469.735 34.7207C470.255 34.9915 470.888 35.127 471.633 35.127C472.204 35.127 472.718 35.0254 473.175 34.8223C473.632 34.6149 474.024 34.3229 474.35 33.9463C474.675 33.5654 474.925 33.1063 475.099 32.5688C475.268 32.0314 475.353 31.4305 475.353 30.7661V29.998C475.353 29.3337 475.266 28.7327 475.092 28.1953C474.915 27.6579 474.661 27.1987 474.331 26.8179C474 26.4328 473.605 26.1387 473.144 25.9355C472.678 25.7324 472.155 25.6309 471.576 25.6309C470.839 25.6309 470.217 25.7663 469.709 26.0371C469.202 26.3079 468.808 26.6825 468.529 27.1606C468.245 27.6388 468.072 28.1868 468.008 28.8047H469.595C469.638 28.4069 469.731 28.0662 469.875 27.7827C470.014 27.4992 470.222 27.2834 470.497 27.1353C470.772 26.9829 471.131 26.9067 471.576 26.9067C471.94 26.9067 472.257 26.9744 472.528 27.1099C472.799 27.2453 473.025 27.4442 473.207 27.7065C473.389 27.9689 473.527 28.2926 473.62 28.6777C473.708 29.0586 473.753 29.4945 473.753 29.9854V30.7661C473.753 31.2316 473.713 31.6548 473.632 32.0356C473.548 32.4123 473.421 32.736 473.251 33.0068C473.078 33.2777 472.858 33.4871 472.591 33.6353C472.325 33.7834 472.005 33.8574 471.633 33.8574C471.18 33.8574 470.814 33.7855 470.535 33.6416C470.251 33.4977 470.037 33.2882 469.894 33.0132C469.745 32.7339 469.648 32.3932 469.602 31.9912ZM465.082 25.25V35H466.618V25.25H465.082ZM461.769 28.1318V35H463.305V28.1318H461.769ZM463.406 26.3291C463.406 26.0964 463.33 25.9038 463.178 25.7515C463.021 25.5949 462.805 25.5166 462.53 25.5166C462.259 25.5166 462.046 25.5949 461.889 25.7515C461.733 25.9038 461.654 26.0964 461.654 26.3291C461.654 26.5576 461.733 26.748 461.889 26.9004C462.046 27.0527 462.259 27.1289 462.53 27.1289C462.805 27.1289 463.021 27.0527 463.178 26.9004C463.33 26.748 463.406 26.5576 463.406 26.3291ZM457.065 35.127C457.573 35.127 458.032 35.0444 458.442 34.8794C458.849 34.7101 459.196 34.4753 459.483 34.1748C459.767 33.8743 459.985 33.521 460.137 33.1147C460.29 32.7085 460.366 32.2705 460.366 31.8008V31.5469C460.366 31.0094 460.287 30.5228 460.131 30.0869C459.974 29.651 459.756 29.2786 459.477 28.9697C459.198 28.6566 458.868 28.4175 458.487 28.2524C458.106 28.0874 457.693 28.0049 457.249 28.0049C456.758 28.0049 456.329 28.0874 455.96 28.2524C455.592 28.4175 455.288 28.6502 455.046 28.9507C454.801 29.2469 454.619 29.6003 454.5 30.0107C454.378 30.4212 454.316 30.874 454.316 31.3691V32.0229H459.623V30.9248H455.827V30.8042C455.836 30.5291 455.891 30.271 455.992 30.0298C456.09 29.7886 456.24 29.5939 456.443 29.4458C456.646 29.2977 456.917 29.2236 457.255 29.2236C457.509 29.2236 457.736 29.2786 457.935 29.3887C458.129 29.4945 458.292 29.6489 458.423 29.8521C458.555 30.0552 458.656 30.3006 458.728 30.5884C458.796 30.8719 458.83 31.1914 458.83 31.5469V31.8008C458.83 32.1012 458.789 32.3805 458.709 32.6387C458.624 32.8926 458.502 33.1147 458.341 33.3052C458.18 33.4956 457.985 33.6458 457.757 33.7559C457.528 33.8617 457.268 33.9146 456.976 33.9146C456.608 33.9146 456.28 33.8405 455.992 33.6924C455.704 33.5443 455.455 33.3348 455.243 33.064L454.437 33.8447C454.585 34.0605 454.778 34.2679 455.015 34.4668C455.252 34.6615 455.542 34.8201 455.884 34.9429C456.223 35.0656 456.616 35.127 457.065 35.127ZM451.606 29.5981V35H453.136V28.1318H451.695L451.606 29.5981ZM451.879 31.312L452.374 31.3057C452.37 30.819 452.302 30.3726 452.171 29.9663C452.035 29.5601 451.849 29.2109 451.612 28.9189C451.371 28.627 451.083 28.4027 450.749 28.2461C450.415 28.0853 450.042 28.0049 449.632 28.0049C449.302 28.0049 449.003 28.0514 448.737 28.1445C448.466 28.2334 448.235 28.3794 448.045 28.5825C447.85 28.7856 447.702 29.0501 447.601 29.376C447.499 29.6976 447.448 30.0933 447.448 30.563V35H448.984V30.5566C448.984 30.2266 449.033 29.9663 449.13 29.7759C449.223 29.5812 449.361 29.4437 449.543 29.3633C449.721 29.2786 449.943 29.2363 450.209 29.2363C450.472 29.2363 450.707 29.2913 450.914 29.4014C451.121 29.5114 451.297 29.6616 451.441 29.8521C451.581 30.0425 451.688 30.2625 451.765 30.5122C451.841 30.7619 451.879 31.0285 451.879 31.312ZM442.738 28.1318V29.249H446.61V28.1318H442.738ZM445.493 26.4497H443.963V33.1021C443.963 33.3136 443.934 33.4766 443.875 33.5908C443.811 33.7008 443.724 33.7749 443.614 33.813C443.504 33.8511 443.375 33.8701 443.227 33.8701C443.121 33.8701 443.02 33.8638 442.922 33.8511C442.825 33.8384 442.747 33.8257 442.688 33.813L442.681 34.981C442.808 35.019 442.956 35.0529 443.125 35.0825C443.291 35.1121 443.481 35.127 443.697 35.127C444.048 35.127 444.359 35.0656 444.63 34.9429C444.901 34.8159 445.112 34.6107 445.265 34.3271C445.417 34.0436 445.493 33.667 445.493 33.1973V26.4497ZM438.168 25.7578H434.899C434.196 25.7578 433.598 25.8636 433.103 26.0752C432.607 26.2868 432.229 26.5999 431.966 27.0146C431.7 27.4251 431.566 27.9329 431.566 28.5381C431.566 28.9993 431.651 29.4056 431.82 29.7568C431.99 30.1081 432.229 30.4043 432.538 30.6455C432.847 30.8825 433.215 31.0666 433.642 31.1978L434.125 31.4326H437.063L437.076 30.1694H434.874C434.493 30.1694 434.175 30.1017 433.921 29.9663C433.667 29.8309 433.477 29.6468 433.35 29.4141C433.219 29.1771 433.153 28.9105 433.153 28.6143C433.153 28.2926 433.217 28.0133 433.344 27.7764C433.466 27.5352 433.657 27.3511 433.915 27.2241C434.173 27.0929 434.501 27.0273 434.899 27.0273H436.575V35H438.168V25.7578ZM432.893 35L435.064 30.8486L433.395 30.8423L431.192 34.9175V35H432.893ZM427.104 35.127C427.612 35.127 428.071 35.0444 428.481 34.8794C428.888 34.7101 429.235 34.4753 429.522 34.1748C429.806 33.8743 430.024 33.521 430.176 33.1147C430.329 32.7085 430.405 32.2705 430.405 31.8008V31.5469C430.405 31.0094 430.326 30.5228 430.17 30.0869C430.013 29.651 429.795 29.2786 429.516 28.9697C429.237 28.6566 428.907 28.4175 428.526 28.2524C428.145 28.0874 427.732 28.0049 427.288 28.0049C426.797 28.0049 426.368 28.0874 426 28.2524C425.631 28.4175 425.327 28.6502 425.085 28.9507C424.84 29.2469 424.658 29.6003 424.54 30.0107C424.417 30.4212 424.355 30.874 424.355 31.3691V32.0229H429.662V30.9248H425.866V30.8042C425.875 30.5291 425.93 30.271 426.031 30.0298C426.129 29.7886 426.279 29.5939 426.482 29.4458C426.685 29.2977 426.956 29.2236 427.294 29.2236C427.548 29.2236 427.775 29.2786 427.974 29.3887C428.168 29.4945 428.331 29.6489 428.462 29.8521C428.594 30.0552 428.695 30.3006 428.767 30.5884C428.835 30.8719 428.869 31.1914 428.869 31.5469V31.8008C428.869 32.1012 428.828 32.3805 428.748 32.6387C428.663 32.8926 428.541 33.1147 428.38 33.3052C428.219 33.4956 428.024 33.6458 427.796 33.7559C427.567 33.8617 427.307 33.9146 427.015 33.9146C426.647 33.9146 426.319 33.8405 426.031 33.6924C425.743 33.5443 425.494 33.3348 425.282 33.064L424.476 33.8447C424.624 34.0605 424.817 34.2679 425.054 34.4668C425.291 34.6615 425.581 34.8201 425.923 34.9429C426.262 35.0656 426.655 35.127 427.104 35.127ZM421.626 29.4521V37.6406H423.156V28.1318H421.747L421.626 29.4521ZM417.151 31.5024V31.6357C417.151 32.1351 417.21 32.5985 417.329 33.0259C417.443 33.4491 417.614 33.8193 417.843 34.1367C418.067 34.4499 418.344 34.6932 418.674 34.8667C419.004 35.0402 419.385 35.127 419.817 35.127C420.244 35.127 420.619 35.0487 420.94 34.8921C421.258 34.7313 421.527 34.5049 421.747 34.2129C421.967 33.9209 422.144 33.5781 422.28 33.1846C422.411 32.7868 422.504 32.3509 422.559 31.877V31.3628C422.504 30.8592 422.411 30.4022 422.28 29.9917C422.144 29.5812 421.967 29.2279 421.747 28.9316C421.527 28.6354 421.258 28.4069 420.94 28.2461C420.623 28.0853 420.253 28.0049 419.83 28.0049C419.398 28.0049 419.015 28.0895 418.681 28.2588C418.346 28.4238 418.065 28.6608 417.836 28.9697C417.608 29.2744 417.437 29.6426 417.322 30.0742C417.208 30.5016 417.151 30.9777 417.151 31.5024ZM418.681 31.6357V31.5024C418.681 31.1851 418.71 30.891 418.77 30.6201C418.829 30.3451 418.922 30.1038 419.049 29.8965C419.176 29.6891 419.339 29.5283 419.538 29.4141C419.732 29.2956 419.967 29.2363 420.242 29.2363C420.513 29.2363 420.746 29.2829 420.94 29.376C421.135 29.4648 421.298 29.5897 421.429 29.7505C421.56 29.9113 421.662 30.0996 421.734 30.3154C421.806 30.527 421.857 30.7576 421.886 31.0073V32.2388C421.835 32.5435 421.749 32.8228 421.626 33.0767C421.503 33.3306 421.33 33.5337 421.105 33.686C420.877 33.8341 420.585 33.9082 420.229 33.9082C419.954 33.9082 419.72 33.849 419.525 33.7305C419.33 33.612 419.172 33.4491 419.049 33.2417C418.922 33.0301 418.829 32.7868 418.77 32.5117C418.71 32.2367 418.681 31.9447 418.681 31.6357ZM414.212 25.25V35H415.748V25.25H414.212ZM410.898 28.1318V35H412.435V28.1318H410.898ZM412.536 26.3291C412.536 26.0964 412.46 25.9038 412.308 25.7515C412.151 25.5949 411.935 25.5166 411.66 25.5166C411.389 25.5166 411.176 25.5949 411.019 25.7515C410.862 25.9038 410.784 26.0964 410.784 26.3291C410.784 26.5576 410.862 26.748 411.019 26.9004C411.176 27.0527 411.389 27.1289 411.66 27.1289C411.935 27.1289 412.151 27.0527 412.308 26.9004C412.46 26.748 412.536 26.5576 412.536 26.3291ZM406.195 35.127C406.703 35.127 407.162 35.0444 407.572 34.8794C407.979 34.7101 408.326 34.4753 408.613 34.1748C408.897 33.8743 409.115 33.521 409.267 33.1147C409.419 32.7085 409.496 32.2705 409.496 31.8008V31.5469C409.496 31.0094 409.417 30.5228 409.261 30.0869C409.104 29.651 408.886 29.2786 408.607 28.9697C408.328 28.6566 407.998 28.4175 407.617 28.2524C407.236 28.0874 406.823 28.0049 406.379 28.0049C405.888 28.0049 405.458 28.0874 405.09 28.2524C404.722 28.4175 404.417 28.6502 404.176 28.9507C403.931 29.2469 403.749 29.6003 403.63 30.0107C403.508 30.4212 403.446 30.874 403.446 31.3691V32.0229H408.753V30.9248H404.957V30.8042C404.965 30.5291 405.021 30.271 405.122 30.0298C405.219 29.7886 405.37 29.5939 405.573 29.4458C405.776 29.2977 406.047 29.2236 406.385 29.2236C406.639 29.2236 406.866 29.2786 407.064 29.3887C407.259 29.4945 407.422 29.6489 407.553 29.8521C407.684 30.0552 407.786 30.3006 407.858 30.5884C407.926 30.8719 407.959 31.1914 407.959 31.5469V31.8008C407.959 32.1012 407.919 32.3805 407.839 32.6387C407.754 32.8926 407.632 33.1147 407.471 33.3052C407.31 33.4956 407.115 33.6458 406.887 33.7559C406.658 33.8617 406.398 33.9146 406.106 33.9146C405.738 33.9146 405.41 33.8405 405.122 33.6924C404.834 33.5443 404.585 33.3348 404.373 33.064L403.567 33.8447C403.715 34.0605 403.908 34.2679 404.145 34.4668C404.382 34.6615 404.671 34.8201 405.014 34.9429C405.353 35.0656 405.746 35.127 406.195 35.127ZM398.4 33.1401C398.4 32.9878 398.438 32.8503 398.514 32.7275C398.59 32.6006 398.736 32.4863 398.952 32.3848C399.164 32.2832 399.477 32.1901 399.892 32.1055C400.256 32.0251 400.59 31.9299 400.895 31.8198C401.195 31.7056 401.453 31.568 401.669 31.4072C401.885 31.2464 402.052 31.056 402.17 30.8359C402.289 30.6159 402.348 30.362 402.348 30.0742C402.348 29.7949 402.287 29.5304 402.164 29.2808C402.041 29.0311 401.866 28.811 401.637 28.6206C401.409 28.4302 401.132 28.2799 400.806 28.1699C400.476 28.0599 400.107 28.0049 399.701 28.0049C399.126 28.0049 398.633 28.1022 398.222 28.2969C397.807 28.4873 397.49 28.7476 397.27 29.0776C397.05 29.4035 396.94 29.7716 396.94 30.1821H398.47C398.47 30.0002 398.516 29.8309 398.609 29.6743C398.698 29.5135 398.834 29.3844 399.016 29.2871C399.198 29.1855 399.426 29.1348 399.701 29.1348C399.964 29.1348 400.181 29.1771 400.355 29.2617C400.524 29.3421 400.651 29.4479 400.736 29.5791C400.816 29.7103 400.856 29.8542 400.856 30.0107C400.856 30.125 400.835 30.2287 400.793 30.3218C400.746 30.4106 400.67 30.4932 400.564 30.5693C400.459 30.6413 400.315 30.709 400.133 30.7725C399.947 30.8359 399.714 30.8973 399.435 30.9565C398.91 31.0666 398.459 31.2083 398.083 31.3818C397.702 31.5511 397.41 31.7712 397.207 32.042C397.003 32.3086 396.902 32.6471 396.902 33.0576C396.902 33.3623 396.967 33.6416 397.099 33.8955C397.226 34.1452 397.412 34.3631 397.657 34.5493C397.903 34.7313 398.197 34.873 398.54 34.9746C398.878 35.0762 399.259 35.127 399.682 35.127C400.304 35.127 400.831 35.0169 401.263 34.7969C401.694 34.5726 402.022 34.2869 402.247 33.9399C402.467 33.5887 402.577 33.2248 402.577 32.8481H401.098C401.081 33.1317 401.002 33.3581 400.863 33.5273C400.719 33.6924 400.541 33.813 400.33 33.8892C400.114 33.9611 399.892 33.9971 399.663 33.9971C399.388 33.9971 399.157 33.9611 398.971 33.8892C398.785 33.813 398.643 33.7114 398.546 33.5845C398.449 33.4533 398.4 33.3052 398.4 33.1401Z" fill="black"/>
<path d="M409.857 238.18V246H411.205V238.18H409.857ZM406.667 241.601V242.67H410.201V241.601H406.667ZM406.221 238.18V239.254H410.201V238.18H406.221ZM402.832 246.107C403.261 246.107 403.65 246.038 403.997 245.898C404.341 245.755 404.634 245.556 404.878 245.302C405.118 245.048 405.302 244.749 405.431 244.405C405.56 244.061 405.625 243.69 405.625 243.293V243.078C405.625 242.623 405.558 242.212 405.426 241.843C405.293 241.474 405.109 241.159 404.873 240.897C404.636 240.632 404.357 240.43 404.035 240.291C403.712 240.151 403.363 240.081 402.987 240.081C402.572 240.081 402.208 240.151 401.897 240.291C401.585 240.43 401.328 240.627 401.124 240.881C400.916 241.132 400.762 241.431 400.662 241.778C400.558 242.126 400.506 242.509 400.506 242.928V243.481H404.996V242.552H401.784V242.45C401.791 242.217 401.838 241.999 401.924 241.794C402.006 241.59 402.133 241.426 402.305 241.3C402.477 241.175 402.706 241.112 402.993 241.112C403.208 241.112 403.399 241.159 403.567 241.252C403.732 241.341 403.87 241.472 403.981 241.644C404.092 241.816 404.178 242.024 404.239 242.267C404.296 242.507 404.325 242.777 404.325 243.078V243.293C404.325 243.547 404.291 243.784 404.223 244.002C404.151 244.217 404.047 244.405 403.911 244.566C403.775 244.727 403.61 244.854 403.417 244.947C403.224 245.037 403.003 245.082 402.756 245.082C402.445 245.082 402.167 245.019 401.924 244.894C401.68 244.768 401.469 244.591 401.29 244.362L400.608 245.022C400.733 245.205 400.896 245.381 401.097 245.549C401.297 245.714 401.542 245.848 401.833 245.952C402.119 246.056 402.452 246.107 402.832 246.107ZM399.491 237.75H398.196V244.759L398.32 246H399.491V237.75ZM394.404 243.041V243.153C394.404 243.583 394.453 243.979 394.549 244.34C394.642 244.698 394.786 245.01 394.979 245.275C395.169 245.54 395.405 245.746 395.688 245.893C395.967 246.036 396.291 246.107 396.66 246.107C397.022 246.107 397.337 246.039 397.605 245.903C397.874 245.767 398.1 245.574 398.282 245.323C398.461 245.073 398.606 244.774 398.717 244.426C398.828 244.079 398.907 243.696 398.954 243.277V242.917C398.907 242.494 398.828 242.111 398.717 241.768C398.606 241.42 398.461 241.121 398.282 240.871C398.1 240.616 397.876 240.421 397.611 240.285C397.342 240.149 397.029 240.081 396.671 240.081C396.299 240.081 395.971 240.153 395.688 240.296C395.402 240.439 395.163 240.643 394.974 240.908C394.784 241.17 394.642 241.481 394.549 241.843C394.453 242.204 394.404 242.604 394.404 243.041ZM395.699 243.153V243.041C395.699 242.779 395.72 242.534 395.763 242.305C395.806 242.072 395.878 241.868 395.978 241.692C396.075 241.517 396.207 241.379 396.375 241.279C396.54 241.175 396.746 241.123 396.993 241.123C397.222 241.123 397.419 241.162 397.584 241.241C397.749 241.32 397.887 241.427 397.998 241.563C398.109 241.7 398.196 241.857 398.261 242.036C398.322 242.215 398.363 242.409 398.384 242.616V243.588C398.352 243.857 398.284 244.104 398.18 244.33C398.073 244.552 397.922 244.731 397.729 244.867C397.536 244.999 397.287 245.065 396.982 245.065C396.743 245.065 396.54 245.017 396.375 244.92C396.211 244.824 396.08 244.689 395.983 244.518C395.883 244.342 395.812 244.138 395.769 243.905C395.722 243.673 395.699 243.422 395.699 243.153Z" fill="#A6ACBE"/>
<path d="M373.657 238.18H372.454L370.193 244.211L367.937 238.18H366.734L369.72 246H370.676L373.657 238.18ZM374.205 238.18H373.061L372.862 243.4V246H374.205V238.18ZM367.33 238.18H366.181V246H367.529V243.4L367.33 238.18ZM361.433 244.834V242.063C361.433 241.855 361.47 241.676 361.545 241.526C361.621 241.375 361.735 241.259 361.889 241.177C362.04 241.094 362.229 241.053 362.458 241.053C362.67 241.053 362.852 241.089 363.006 241.161C363.16 241.232 363.28 241.329 363.366 241.451C363.452 241.572 363.495 241.71 363.495 241.864H364.784C364.784 241.635 364.729 241.413 364.618 241.198C364.507 240.983 364.346 240.792 364.134 240.624C363.923 240.455 363.671 240.323 363.377 240.226C363.083 240.129 362.754 240.081 362.389 240.081C361.952 240.081 361.565 240.154 361.229 240.301C360.888 240.448 360.622 240.67 360.428 240.967C360.231 241.261 360.133 241.63 360.133 242.074V244.657C360.133 244.922 360.115 245.16 360.079 245.372C360.04 245.579 359.984 245.76 359.913 245.914V246H361.239C361.3 245.86 361.348 245.683 361.384 245.468C361.417 245.25 361.433 245.039 361.433 244.834ZM361.245 242.466L361.234 243.266H362.163C362.403 243.266 362.614 243.289 362.797 243.336C362.979 243.379 363.132 243.443 363.253 243.529C363.375 243.615 363.466 243.719 363.527 243.841C363.588 243.963 363.619 244.1 363.619 244.254C363.619 244.408 363.583 244.55 363.511 244.679C363.44 244.804 363.336 244.903 363.2 244.974C363.06 245.046 362.892 245.082 362.695 245.082C362.43 245.082 362.199 245.028 362.002 244.92C361.801 244.809 361.644 244.675 361.529 244.518C361.415 244.356 361.354 244.204 361.347 244.061L360.928 244.636C360.971 244.783 361.044 244.94 361.148 245.108C361.252 245.277 361.388 245.438 361.556 245.592C361.721 245.742 361.92 245.866 362.152 245.962C362.382 246.059 362.646 246.107 362.947 246.107C363.327 246.107 363.665 246.032 363.962 245.882C364.26 245.728 364.492 245.522 364.661 245.264C364.829 245.003 364.913 244.707 364.913 244.378C364.913 244.07 364.856 243.798 364.741 243.562C364.623 243.322 364.451 243.121 364.226 242.96C363.996 242.799 363.717 242.677 363.388 242.595C363.058 242.509 362.682 242.466 362.26 242.466H361.245ZM357.479 241.295V246H358.774V240.188H357.539L357.479 241.295ZM355.702 240.151L355.712 241.354C355.791 241.34 355.877 241.329 355.97 241.322C356.06 241.315 356.149 241.311 356.239 241.311C356.461 241.311 356.656 241.343 356.824 241.408C356.993 241.469 357.134 241.558 357.249 241.676C357.36 241.791 357.445 241.931 357.506 242.095C357.567 242.26 357.603 242.444 357.614 242.648L357.909 242.67C357.909 242.305 357.873 241.966 357.802 241.655C357.73 241.343 357.623 241.069 357.479 240.833C357.333 240.597 357.15 240.412 356.932 240.28C356.71 240.147 356.454 240.081 356.164 240.081C356.085 240.081 356.001 240.088 355.911 240.103C355.818 240.117 355.748 240.133 355.702 240.151Z" fill="#A6ACBE"/>
<path d="M334.16 239.222L336.496 246H337.909L334.965 238.18H334.063L334.16 239.222ZM332.205 246L334.546 239.222L334.648 238.18H333.741L330.787 246H332.205ZM332.317 243.1V244.168H336.571V243.1H332.317ZM328.837 241.306V248.234H330.131V240.188H328.939L328.837 241.306ZM325.05 243.041V243.153C325.05 243.576 325.1 243.968 325.201 244.33C325.297 244.688 325.442 245.001 325.636 245.27C325.826 245.535 326.06 245.74 326.339 245.887C326.619 246.034 326.941 246.107 327.306 246.107C327.668 246.107 327.985 246.041 328.257 245.909C328.525 245.773 328.753 245.581 328.939 245.334C329.125 245.087 329.276 244.797 329.39 244.464C329.501 244.127 329.58 243.758 329.626 243.357V242.922C329.58 242.496 329.501 242.11 329.39 241.762C329.276 241.415 329.125 241.116 328.939 240.865C328.753 240.615 328.525 240.421 328.257 240.285C327.988 240.149 327.675 240.081 327.317 240.081C326.952 240.081 326.628 240.153 326.345 240.296C326.062 240.436 325.824 240.636 325.63 240.897C325.437 241.155 325.292 241.467 325.195 241.832C325.099 242.194 325.05 242.597 325.05 243.041ZM326.345 243.153V243.041C326.345 242.772 326.37 242.523 326.42 242.294C326.47 242.061 326.549 241.857 326.656 241.682C326.764 241.506 326.902 241.37 327.07 241.273C327.235 241.173 327.433 241.123 327.666 241.123C327.895 241.123 328.092 241.162 328.257 241.241C328.422 241.316 328.559 241.422 328.67 241.558C328.781 241.694 328.867 241.854 328.928 242.036C328.989 242.215 329.032 242.41 329.057 242.622V243.664C329.014 243.921 328.941 244.158 328.837 244.373C328.733 244.587 328.586 244.759 328.396 244.888C328.203 245.014 327.956 245.076 327.655 245.076C327.423 245.076 327.224 245.026 327.059 244.926C326.894 244.826 326.76 244.688 326.656 244.512C326.549 244.333 326.47 244.127 326.42 243.895C326.37 243.662 326.345 243.415 326.345 243.153ZM322.649 241.295V246H323.944V240.188H322.708L322.649 241.295ZM320.872 240.151L320.882 241.354C320.961 241.34 321.047 241.329 321.14 241.322C321.23 241.315 321.319 241.311 321.409 241.311C321.631 241.311 321.826 241.343 321.994 241.408C322.162 241.469 322.304 241.558 322.418 241.676C322.529 241.791 322.615 241.931 322.676 242.095C322.737 242.26 322.773 242.444 322.784 242.648L323.079 242.67C323.079 242.305 323.043 241.966 322.972 241.655C322.9 241.343 322.793 241.069 322.649 240.833C322.503 240.597 322.32 240.412 322.102 240.28C321.88 240.147 321.624 240.081 321.333 240.081C321.255 240.081 321.171 240.088 321.081 240.103C320.988 240.117 320.918 240.133 320.872 240.151Z" fill="#A6ACBE"/>
<path d="M298.443 238.18L296.188 244.174L293.937 238.18H292.181V246H293.534V243.422L293.4 239.974L295.709 246H296.682L298.986 239.979L298.852 243.422V246H300.205V238.18H298.443ZM287.223 246C287.28 245.889 287.331 245.708 287.374 245.458C287.789 245.891 288.297 246.107 288.899 246.107C289.483 246.107 289.959 245.941 290.328 245.608C290.696 245.275 290.881 244.863 290.881 244.373C290.881 243.753 290.652 243.279 290.193 242.949C289.731 242.616 289.073 242.45 288.217 242.45H287.417V242.068C287.417 241.768 287.501 241.528 287.669 241.349C287.837 241.166 288.093 241.075 288.437 241.075C288.734 241.075 288.978 241.15 289.167 241.3C289.357 241.447 289.452 241.635 289.452 241.864H290.757C290.757 241.546 290.652 241.248 290.44 240.973C290.229 240.693 289.943 240.475 289.581 240.317C289.216 240.16 288.809 240.081 288.362 240.081C287.681 240.081 287.139 240.253 286.734 240.597C286.33 240.937 286.122 241.417 286.111 242.036V244.657C286.111 245.18 286.038 245.597 285.891 245.909V246H287.223ZM288.657 245.06C288.399 245.06 288.158 244.997 287.932 244.872C287.703 244.747 287.531 244.578 287.417 244.367V243.271H288.12C288.604 243.271 288.967 243.356 289.21 243.524C289.454 243.692 289.576 243.93 289.576 244.238C289.576 244.489 289.493 244.689 289.329 244.84C289.16 244.987 288.937 245.06 288.657 245.06ZM282.797 244.131L281.616 240.188H280.225L282.534 246.881C282.889 247.858 283.49 248.347 284.339 248.347C284.529 248.347 284.738 248.315 284.967 248.25V247.241L284.72 247.257C284.391 247.257 284.144 247.196 283.979 247.074C283.811 246.956 283.678 246.756 283.582 246.473L283.394 245.973L285.435 240.188H284.027L282.797 244.131Z" fill="#A6ACBE"/>
<path d="M259.988 243.653V238.18H258.645V243.653C258.645 244.172 258.756 244.614 258.978 244.979C259.2 245.345 259.503 245.624 259.886 245.817C260.269 246.011 260.704 246.107 261.191 246.107C261.689 246.107 262.131 246.023 262.518 245.855C262.901 245.687 263.201 245.429 263.42 245.082C263.638 244.734 263.748 244.294 263.748 243.76H262.394C262.394 244.068 262.346 244.317 262.249 244.507C262.149 244.693 262.009 244.829 261.83 244.915C261.647 244.997 261.434 245.039 261.191 245.039C260.958 245.039 260.752 244.987 260.573 244.883C260.391 244.775 260.247 244.62 260.144 244.416C260.04 244.208 259.988 243.954 259.988 243.653ZM253.725 244.63V240.188H252.425V246H253.65L253.725 244.63ZM253.542 243.422L253.107 243.411C253.107 243.801 253.15 244.161 253.236 244.491C253.322 244.817 253.455 245.101 253.634 245.345C253.813 245.585 254.042 245.773 254.321 245.909C254.601 246.041 254.935 246.107 255.326 246.107C255.609 246.107 255.868 246.066 256.104 245.984C256.341 245.902 256.545 245.774 256.717 245.603C256.885 245.431 257.016 245.207 257.109 244.931C257.202 244.655 257.249 244.326 257.249 243.943V240.188H255.954V243.954C255.954 244.165 255.929 244.342 255.879 244.485C255.829 244.625 255.761 244.738 255.675 244.824C255.589 244.91 255.489 244.971 255.374 245.006C255.259 245.042 255.138 245.06 255.009 245.06C254.64 245.06 254.35 244.988 254.139 244.845C253.924 244.698 253.772 244.501 253.682 244.254C253.589 244.007 253.542 243.73 253.542 243.422ZM249.815 241.429V246H251.109V240.188H249.89L249.815 241.429ZM250.046 242.879L250.465 242.874C250.461 242.462 250.404 242.084 250.293 241.741C250.178 241.397 250.021 241.102 249.82 240.854C249.616 240.607 249.373 240.418 249.09 240.285C248.807 240.149 248.492 240.081 248.145 240.081C247.865 240.081 247.613 240.12 247.387 240.199C247.158 240.274 246.963 240.398 246.802 240.57C246.637 240.742 246.512 240.965 246.426 241.241C246.34 241.513 246.297 241.848 246.297 242.246V246H247.597V242.24C247.597 241.961 247.638 241.741 247.72 241.58C247.799 241.415 247.915 241.299 248.069 241.23C248.22 241.159 248.408 241.123 248.633 241.123C248.855 241.123 249.054 241.17 249.229 241.263C249.405 241.356 249.554 241.483 249.675 241.644C249.793 241.805 249.885 241.991 249.949 242.203C250.014 242.414 250.046 242.639 250.046 242.879Z" fill="#A6ACBE"/>
<path d="M223.004 238.18H221.65V243.664C221.65 244.412 221.885 245.006 222.354 245.447C222.819 245.887 223.435 246.107 224.202 246.107C225.018 246.107 225.648 245.902 226.092 245.49C226.536 245.078 226.758 244.505 226.758 243.771H225.405C225.405 244.186 225.303 244.5 225.099 244.711C224.891 244.919 224.592 245.022 224.202 245.022C223.836 245.022 223.546 244.903 223.332 244.663C223.113 244.419 223.004 244.084 223.004 243.658V238.18ZM216.698 245.431C217.081 245.882 217.626 246.107 218.331 246.107C218.961 246.107 219.439 245.923 219.765 245.554C220.087 245.185 220.249 244.652 220.249 243.954V240.188H218.943V243.938C218.943 244.675 218.637 245.044 218.025 245.044C217.391 245.044 216.963 244.817 216.741 244.362V240.188H215.436V246H216.666L216.698 245.431ZM212.718 246H214.023V237.75H212.718V246Z" fill="#A6ACBE"/>
<path d="M184.828 244.179H187.857L188.491 246H189.903L186.949 238.18H185.73L182.771 246H184.188L184.828 244.179ZM187.476 243.083H185.209L186.342 239.839L187.476 243.083ZM178.549 245.431C178.932 245.882 179.476 246.107 180.182 246.107C180.812 246.107 181.29 245.923 181.616 245.554C181.938 245.185 182.099 244.652 182.099 243.954V240.188H180.794V243.938C180.794 244.675 180.488 245.044 179.875 245.044C179.242 245.044 178.814 244.817 178.592 244.362V240.188H177.287V246H178.517L178.549 245.431ZM176.186 243.051C176.186 242.149 175.974 241.429 175.552 240.892C175.126 240.351 174.562 240.081 173.86 240.081C173.197 240.081 172.676 240.312 172.297 240.774L172.238 240.188H171.062V245.823C171.062 246.585 171.3 247.187 171.776 247.627C172.249 248.068 172.888 248.288 173.693 248.288C174.119 248.288 174.537 248.199 174.945 248.02C175.349 247.844 175.657 247.613 175.869 247.327L175.251 246.542C174.85 247.019 174.356 247.257 173.769 247.257C173.335 247.257 172.993 247.139 172.743 246.902C172.492 246.67 172.367 246.326 172.367 245.871V245.479C172.743 245.898 173.244 246.107 173.871 246.107C174.551 246.107 175.108 245.837 175.541 245.296C175.971 244.756 176.186 244.007 176.186 243.051ZM174.886 243.164C174.886 243.748 174.768 244.208 174.531 244.544C174.291 244.877 173.96 245.044 173.538 245.044C173.011 245.044 172.621 244.818 172.367 244.367V241.811C172.614 241.37 173 241.15 173.527 241.15C173.957 241.15 174.291 241.32 174.531 241.66C174.768 242 174.886 242.502 174.886 243.164Z" fill="#A6ACBE"/>
<path d="M148.091 243.986C148.091 243.825 148.116 243.681 148.166 243.556C148.213 243.431 148.297 243.316 148.418 243.212C148.54 243.109 148.712 243.008 148.934 242.912C149.153 242.811 149.432 242.709 149.772 242.605C150.144 242.491 150.488 242.364 150.803 242.224C151.115 242.081 151.387 241.916 151.62 241.73C151.852 241.54 152.033 241.324 152.162 241.08C152.291 240.833 152.355 240.548 152.355 240.226C152.355 239.907 152.289 239.617 152.157 239.356C152.021 239.095 151.829 238.869 151.582 238.679C151.331 238.486 151.036 238.337 150.696 238.233C150.356 238.126 149.98 238.072 149.568 238.072C148.988 238.072 148.488 238.18 148.069 238.395C147.647 238.609 147.323 238.898 147.097 239.259C146.868 239.621 146.753 240.02 146.753 240.457H148.091C148.091 240.199 148.146 239.972 148.257 239.775C148.365 239.574 148.529 239.417 148.751 239.302C148.97 239.188 149.247 239.13 149.584 239.13C149.903 239.13 150.168 239.179 150.379 239.275C150.59 239.372 150.748 239.503 150.852 239.667C150.955 239.832 151.007 240.018 151.007 240.226C151.007 240.373 150.973 240.507 150.905 240.629C150.837 240.747 150.733 240.858 150.594 240.962C150.454 241.062 150.279 241.157 150.067 241.247C149.856 241.336 149.607 241.422 149.321 241.504C148.888 241.633 148.51 241.777 148.188 241.934C147.865 242.088 147.597 242.264 147.382 242.46C147.167 242.657 147.006 242.881 146.898 243.132C146.791 243.379 146.737 243.66 146.737 243.975C146.737 244.305 146.804 244.602 146.936 244.867C147.069 245.128 147.258 245.352 147.505 245.538C147.749 245.721 148.042 245.862 148.386 245.962C148.726 246.059 149.106 246.107 149.525 246.107C149.901 246.107 150.271 246.057 150.637 245.957C150.998 245.857 151.328 245.705 151.625 245.5C151.922 245.293 152.159 245.035 152.334 244.727C152.509 244.416 152.597 244.052 152.597 243.637H151.249C151.249 243.891 151.206 244.108 151.12 244.287C151.031 244.466 150.907 244.612 150.75 244.727C150.592 244.838 150.409 244.92 150.202 244.974C149.99 245.028 149.765 245.055 149.525 245.055C149.21 245.055 148.947 245.01 148.735 244.92C148.521 244.831 148.359 244.706 148.252 244.544C148.145 244.383 148.091 244.197 148.091 243.986ZM143.112 246.107C143.542 246.107 143.93 246.038 144.277 245.898C144.621 245.755 144.915 245.556 145.158 245.302C145.398 245.048 145.583 244.749 145.711 244.405C145.84 244.061 145.905 243.69 145.905 243.293V243.078C145.905 242.623 145.839 242.212 145.706 241.843C145.574 241.474 145.389 241.159 145.153 240.897C144.917 240.632 144.637 240.43 144.315 240.291C143.993 240.151 143.644 240.081 143.268 240.081C142.852 240.081 142.489 240.151 142.177 240.291C141.866 240.43 141.608 240.627 141.404 240.881C141.196 241.132 141.042 241.431 140.942 241.778C140.838 242.126 140.786 242.509 140.786 242.928V243.481H145.276V242.552H142.064V242.45C142.072 242.217 142.118 241.999 142.204 241.794C142.286 241.59 142.414 241.426 142.585 241.3C142.757 241.175 142.986 241.112 143.273 241.112C143.488 241.112 143.679 241.159 143.848 241.252C144.012 241.341 144.15 241.472 144.261 241.644C144.372 241.816 144.458 242.024 144.519 242.267C144.576 242.507 144.605 242.777 144.605 243.078V243.293C144.605 243.547 144.571 243.784 144.503 244.002C144.431 244.217 144.327 244.405 144.191 244.566C144.055 244.727 143.891 244.854 143.697 244.947C143.504 245.037 143.284 245.082 143.037 245.082C142.725 245.082 142.448 245.019 142.204 244.894C141.961 244.768 141.749 244.591 141.57 244.362L140.888 245.022C141.014 245.205 141.176 245.381 141.377 245.549C141.577 245.714 141.823 245.848 142.113 245.952C142.399 246.056 142.732 246.107 143.112 246.107ZM138.477 241.306V248.234H139.771V240.188H138.579L138.477 241.306ZM134.69 243.041V243.153C134.69 243.576 134.74 243.968 134.84 244.33C134.937 244.688 135.082 245.001 135.275 245.27C135.465 245.535 135.7 245.74 135.979 245.887C136.258 246.034 136.581 246.107 136.946 246.107C137.307 246.107 137.624 246.041 137.896 245.909C138.165 245.773 138.392 245.581 138.579 245.334C138.765 245.087 138.915 244.797 139.03 244.464C139.141 244.127 139.22 243.758 139.266 243.357V242.922C139.22 242.496 139.141 242.11 139.03 241.762C138.915 241.415 138.765 241.116 138.579 240.865C138.392 240.615 138.165 240.421 137.896 240.285C137.628 240.149 137.315 240.081 136.957 240.081C136.591 240.081 136.267 240.153 135.984 240.296C135.701 240.436 135.463 240.636 135.27 240.897C135.077 241.155 134.932 241.467 134.835 241.832C134.738 242.194 134.69 242.597 134.69 243.041ZM135.984 243.153V243.041C135.984 242.772 136.009 242.523 136.06 242.294C136.11 242.061 136.188 241.857 136.296 241.682C136.403 241.506 136.541 241.37 136.709 241.273C136.874 241.173 137.073 241.123 137.306 241.123C137.535 241.123 137.732 241.162 137.896 241.241C138.061 241.316 138.199 241.422 138.31 241.558C138.421 241.694 138.507 241.854 138.568 242.036C138.629 242.215 138.672 242.41 138.697 242.622V243.664C138.654 243.921 138.58 244.158 138.477 244.373C138.373 244.587 138.226 244.759 138.036 244.888C137.843 245.014 137.596 245.076 137.295 245.076C137.062 245.076 136.863 245.026 136.699 244.926C136.534 244.826 136.4 244.688 136.296 244.512C136.188 244.333 136.11 244.127 136.06 243.895C136.009 243.662 135.984 243.415 135.984 243.153Z" fill="#A6ACBE"/>
<path d="M108.969 241.875V242.305C108.969 242.896 109.046 243.425 109.2 243.895C109.354 244.364 109.574 244.763 109.861 245.092C110.144 245.422 110.484 245.674 110.881 245.85C111.279 246.021 111.719 246.107 112.203 246.107C112.682 246.107 113.121 246.021 113.519 245.85C113.912 245.674 114.254 245.422 114.544 245.092C114.834 244.763 115.06 244.364 115.221 243.895C115.379 243.425 115.458 242.896 115.458 242.305V241.875C115.458 241.284 115.379 240.756 115.221 240.291C115.064 239.821 114.842 239.422 114.555 239.093C114.265 238.76 113.923 238.507 113.529 238.335C113.132 238.16 112.693 238.072 112.213 238.072C111.73 238.072 111.29 238.16 110.892 238.335C110.495 238.507 110.153 238.76 109.866 239.093C109.58 239.422 109.36 239.821 109.206 240.291C109.048 240.756 108.969 241.284 108.969 241.875ZM110.317 242.305V241.864C110.317 241.427 110.36 241.042 110.446 240.709C110.529 240.373 110.652 240.092 110.817 239.866C110.978 239.637 111.177 239.465 111.413 239.351C111.649 239.232 111.916 239.173 112.213 239.173C112.511 239.173 112.776 239.232 113.008 239.351C113.241 239.465 113.44 239.637 113.604 239.866C113.766 240.092 113.889 240.373 113.975 240.709C114.061 241.042 114.104 241.427 114.104 241.864V242.305C114.104 242.742 114.061 243.128 113.975 243.465C113.889 243.801 113.764 244.086 113.599 244.319C113.431 244.548 113.23 244.722 112.998 244.84C112.765 244.954 112.5 245.012 112.203 245.012C111.902 245.012 111.635 244.954 111.402 244.84C111.17 244.722 110.973 244.548 110.812 244.319C110.65 244.086 110.529 243.801 110.446 243.465C110.36 243.128 110.317 242.742 110.317 242.305ZM105.376 245.076C105.165 245.076 104.975 245.035 104.807 244.953C104.635 244.867 104.497 244.749 104.393 244.598C104.286 244.448 104.227 244.274 104.216 244.077H102.997C103.004 244.453 103.115 244.795 103.33 245.103C103.544 245.411 103.829 245.656 104.184 245.839C104.538 246.018 104.93 246.107 105.36 246.107C105.804 246.107 106.191 246.032 106.52 245.882C106.849 245.728 107.123 245.517 107.342 245.248C107.56 244.979 107.725 244.67 107.836 244.319C107.943 243.968 107.997 243.592 107.997 243.191V243.003C107.997 242.602 107.943 242.226 107.836 241.875C107.725 241.521 107.56 241.209 107.342 240.94C107.123 240.672 106.849 240.462 106.52 240.312C106.191 240.158 105.806 240.081 105.365 240.081C104.9 240.081 104.492 240.174 104.141 240.36C103.79 240.543 103.514 240.799 103.313 241.128C103.109 241.454 103.004 241.834 102.997 242.267H104.216C104.227 242.052 104.28 241.859 104.377 241.687C104.47 241.512 104.603 241.372 104.774 241.268C104.943 241.164 105.145 241.112 105.381 241.112C105.643 241.112 105.859 241.166 106.031 241.273C106.203 241.377 106.337 241.521 106.434 241.703C106.531 241.882 106.601 242.084 106.644 242.31C106.683 242.532 106.703 242.763 106.703 243.003V243.191C106.703 243.431 106.683 243.664 106.644 243.889C106.604 244.115 106.536 244.317 106.439 244.496C106.339 244.672 106.203 244.813 106.031 244.92C105.859 245.024 105.641 245.076 105.376 245.076ZM99.3389 240.188V241.134H102.615V240.188H99.3389ZM101.67 238.765H100.375V244.394C100.375 244.573 100.35 244.711 100.3 244.808C100.247 244.901 100.173 244.963 100.08 244.996C99.987 245.028 99.8778 245.044 99.7524 245.044C99.6629 245.044 99.577 245.039 99.4946 245.028C99.4123 245.017 99.346 245.006 99.2959 244.996L99.2905 245.984C99.3979 246.016 99.5233 246.045 99.6665 246.07C99.8062 246.095 99.9673 246.107 100.15 246.107C100.447 246.107 100.71 246.056 100.939 245.952C101.169 245.844 101.348 245.671 101.477 245.431C101.605 245.191 101.67 244.872 101.67 244.475V238.765Z" fill="#A6ACBE"/>
<path d="M73.0015 246H74.3604L77.8462 240.452V246H79.2051V238.18H77.8462L74.3496 243.75V238.18H73.0015V246ZM71.7661 243.041C71.7661 242.471 71.6533 241.959 71.4277 241.504C71.2021 241.046 70.8853 240.695 70.4771 240.452C70.0688 240.205 69.5998 240.081 69.0698 240.081C68.2856 240.081 67.6501 240.333 67.1631 240.838C66.6725 241.343 66.4076 242.013 66.3682 242.847L66.3628 243.153C66.3628 243.726 66.4738 244.238 66.6958 244.689C66.9142 245.141 67.2293 245.49 67.6411 245.737C68.0493 245.984 68.522 246.107 69.0591 246.107C69.8791 246.107 70.5361 245.835 71.0303 245.291C71.5208 244.743 71.7661 244.014 71.7661 243.105V243.041ZM70.4609 243.153C70.4609 243.751 70.3374 244.22 70.0903 244.561C69.8433 244.897 69.4995 245.065 69.0591 245.065C68.6187 245.065 68.2767 244.894 68.0332 244.55C67.7861 244.206 67.6626 243.703 67.6626 243.041C67.6626 242.453 67.7897 241.988 68.0439 241.644C68.2946 241.3 68.6366 241.128 69.0698 241.128C69.4959 241.128 69.8343 241.299 70.085 241.639C70.3356 241.975 70.4609 242.48 70.4609 243.153ZM63.2959 244.346L62.0659 240.188H60.7178L62.7319 246H63.8652L65.8955 240.188H64.542L63.2959 244.346Z" fill="#A6ACBE"/>
<path d="M39.9331 246H41.6035L41.5928 244.931H39.9331C39.4497 244.931 39.0451 244.826 38.7192 244.614C38.3898 244.403 38.1427 244.1 37.978 243.707C37.8097 243.313 37.7256 242.844 37.7256 242.299V241.875C37.7256 241.452 37.7739 241.078 37.8706 240.752C37.9637 240.427 38.1034 240.153 38.2896 239.931C38.4722 239.709 38.6978 239.54 38.9663 239.426C39.2313 239.311 39.5374 239.254 39.8848 239.254H41.6357V238.18H39.8848C39.3656 238.18 38.8911 238.267 38.4614 238.443C38.0317 238.615 37.6611 238.864 37.3496 239.189C37.0345 239.515 36.7928 239.906 36.6245 240.36C36.4562 240.815 36.3721 241.324 36.3721 241.886V242.299C36.3721 242.861 36.4562 243.37 36.6245 243.825C36.7928 244.279 37.0345 244.67 37.3496 244.996C37.6647 245.318 38.0407 245.567 38.4775 245.742C38.9108 245.914 39.396 246 39.9331 246ZM40.8569 238.18V246H42.2051V238.18H40.8569ZM32.5854 246.107C33.0151 246.107 33.4036 246.038 33.751 245.898C34.0947 245.755 34.3883 245.556 34.6318 245.302C34.8717 245.048 35.0562 244.749 35.1851 244.405C35.314 244.061 35.3784 243.69 35.3784 243.293V243.078C35.3784 242.623 35.3122 242.212 35.1797 241.843C35.0472 241.474 34.8628 241.159 34.6265 240.897C34.3901 240.632 34.1108 240.43 33.7886 240.291C33.4663 240.151 33.1172 240.081 32.7412 240.081C32.3258 240.081 31.9624 240.151 31.6509 240.291C31.3394 240.43 31.0815 240.627 30.8774 240.881C30.6698 241.132 30.5158 241.431 30.4155 241.778C30.3117 242.126 30.2598 242.509 30.2598 242.928V243.481H34.75V242.552H31.5381V242.45C31.5452 242.217 31.5918 241.999 31.6777 241.794C31.7601 241.59 31.8872 241.426 32.0591 241.3C32.231 241.175 32.4601 241.112 32.7466 241.112C32.9614 241.112 33.153 241.159 33.3213 241.252C33.486 241.341 33.6239 241.472 33.7349 241.644C33.8459 241.816 33.9318 242.024 33.9927 242.267C34.05 242.507 34.0786 242.777 34.0786 243.078V243.293C34.0786 243.547 34.0446 243.784 33.9766 244.002C33.9049 244.217 33.8011 244.405 33.665 244.566C33.529 244.727 33.3643 244.854 33.1709 244.947C32.9775 245.037 32.7573 245.082 32.5103 245.082C32.1987 245.082 31.9212 245.019 31.6777 244.894C31.4342 244.768 31.223 244.591 31.0439 244.362L30.3618 245.022C30.4871 245.205 30.6501 245.381 30.8506 245.549C31.0511 245.714 31.2964 245.848 31.5864 245.952C31.8729 246.056 32.2059 246.107 32.5854 246.107ZM26.876 245.076C26.6647 245.076 26.4749 245.035 26.3066 244.953C26.1348 244.867 25.9969 244.749 25.8931 244.598C25.7856 244.448 25.7266 244.274 25.7158 244.077H24.4966C24.5037 244.453 24.6147 244.795 24.8296 245.103C25.0444 245.411 25.3291 245.656 25.6836 245.839C26.0381 246.018 26.4302 246.107 26.8599 246.107C27.3039 246.107 27.6906 246.032 28.02 245.882C28.3494 245.728 28.6234 245.517 28.8418 245.248C29.0602 244.979 29.2249 244.67 29.3359 244.319C29.4434 243.968 29.4971 243.592 29.4971 243.191V243.003C29.4971 242.602 29.4434 242.226 29.3359 241.875C29.2249 241.521 29.0602 241.209 28.8418 240.94C28.6234 240.672 28.3494 240.462 28.02 240.312C27.6906 240.158 27.3057 240.081 26.8652 240.081C26.3997 240.081 25.9915 240.174 25.6406 240.36C25.2897 240.543 25.014 240.799 24.8135 241.128C24.6094 241.454 24.5037 241.834 24.4966 242.267H25.7158C25.7266 242.052 25.7803 241.859 25.877 241.687C25.9701 241.512 26.1025 241.372 26.2744 241.268C26.4427 241.164 26.645 241.112 26.8813 241.112C27.1427 241.112 27.3594 241.166 27.5312 241.273C27.7031 241.377 27.8374 241.521 27.9341 241.703C28.0308 241.882 28.1006 242.084 28.1436 242.31C28.1829 242.532 28.2026 242.763 28.2026 243.003V243.191C28.2026 243.431 28.1829 243.664 28.1436 243.889C28.1042 244.115 28.0361 244.317 27.9395 244.496C27.8392 244.672 27.7031 244.813 27.5312 244.92C27.3594 245.024 27.141 245.076 26.876 245.076Z" fill="#A6ACBE"/>
<rect opacity="0.2" width="452" height="1" transform="matrix(-1 0 0 1 476 50)" fill="#A6ACBE"/>
<rect width="3" height="110" rx="1.5" transform="matrix(-1 0 0 1 444 118)" fill="#6F52ED"/>
<rect width="3" height="52" rx="1.5" transform="matrix(-1 0 0 1 407 176)" fill="#6F52ED"/>
<rect width="3" height="110" rx="1.5" transform="matrix(-1 0 0 1 370 118)" fill="#6F52ED"/>
<rect width="3" height="98" rx="1.5" transform="matrix(-1 0 0 1 333 130)" fill="#6F52ED"/>
<rect width="3" height="124" rx="1.5" transform="matrix(-1 0 0 1 296 104)" fill="#6F52ED"/>
<rect width="3" height="59" rx="1.5" transform="matrix(-1 0 0 1 259 169)" fill="#6F52ED"/>
<rect width="3" height="110" rx="1.5" transform="matrix(-1 0 0 1 222 118)" fill="#6F52ED"/>
<rect width="3" height="121" rx="1.5" transform="matrix(-1 0 0 1 185 107)" fill="#6F52ED"/>
<rect width="3" height="101" rx="1.5" transform="matrix(-1 0 0 1 148 127)" fill="#6F52ED"/>
<rect width="3" height="110" rx="1.5" transform="matrix(-1 0 0 1 111 118)" fill="#6F52ED"/>
<rect width="3" height="103" rx="1.5" transform="matrix(-1 0 0 1 74 125)" fill="#6F52ED"/>
<rect width="3" height="132" rx="1.5" transform="matrix(-1 0 0 1 37 96)" fill="#6F52ED"/>
<rect width="3" height="94" rx="1.5" transform="matrix(-1 0 0 1 438 134)" fill="#FF7A00"/>
<rect width="3" height="94" rx="1.5" transform="matrix(-1 0 0 1 364 134)" fill="#FF7A00"/>
<rect width="3" height="39" rx="1.5" transform="matrix(-1 0 0 1 401 189)" fill="#FF7A00"/>
<rect width="3" height="78" rx="1.5" transform="matrix(-1 0 0 1 327 150)" fill="#FF7A00"/>
<rect width="3" height="94" rx="1.5" transform="matrix(-1 0 0 1 290 134)" fill="#FF7A00"/>
<rect width="3" height="54" rx="1.5" transform="matrix(-1 0 0 1 253 174)" fill="#FF7A00"/>
<rect width="3" height="80" rx="1.5" transform="matrix(-1 0 0 1 216 148)" fill="#FF7A00"/>
<rect width="3" height="115" rx="1.5" transform="matrix(-1 0 0 1 179 113)" fill="#FF7A00"/>
<rect width="3" height="59" rx="1.5" transform="matrix(-1 0 0 1 142 169)" fill="#FF7A00"/>
<rect width="3" height="94" rx="1.5" transform="matrix(-1 0 0 1 105 134)" fill="#FF7A00"/>
<rect width="3" height="72" rx="1.5" transform="matrix(-1 0 0 1 68 156)" fill="#FF7A00"/>
<rect width="3" height="103" rx="1.5" transform="matrix(-1 0 0 1 31 125)" fill="#FF7A00"/>
</svg>
